<svg
        width="36"
        height="36"
        viewBox="0 0 36 36"
        fill="none"
        xmlns="http://www.w3.org/2000/svg"
>
    <rect width="36" height="36" rx="9" fill="#D52E26" />
    <path
            fill-rule="evenodd"
            clip-rule="evenodd"
            d="M23.998 25.3867C22.4735 25.3867 20.7757 23.8393 19.3089 21.7209C18.2398 21.7558 17.2243 21.8606 16.2921 22.0178C14.5836 24.8131 12.6467 27 11.1706 27C9.54802 27 9 25.3961 9 24.664C9 22.363 11.9107 21.0036 15.1263 20.3387C15.7334 19.303 16.3217 18.1827 16.8294 17.0718C16.0813 15.2167 15.6206 13.4046 15.6206 12.0573C15.6206 11.203 15.7965 10.5099 16.143 9.99403C16.5756 9.35194 17.2727 9 18.1041 9C18.8334 9 19.4459 9.30761 19.8261 9.86776C20.1323 10.3164 20.2801 10.894 20.2801 11.6342C20.2801 12.9036 19.7105 14.897 18.8254 17.0315C19.2525 18 19.7522 18.9578 20.2827 19.8296C21.5158 19.8376 23.2109 19.9504 24.593 20.4152C26.5823 21.0815 27 22.1776 27 22.9809C26.9987 24.1375 26.0598 25.3867 23.998 25.3867Z"
            fill="white"
    />
    <path
            d="M10.8809 24.6627C10.8822 24.6627 10.9574 25.1181 11.1696 25.1181C11.6801 25.0818 12.6082 24.1079 13.6317 22.6652C11.9326 23.2388 10.8809 23.9857 10.8809 24.6627Z"
            fill="#D52E26"
    />
    <path
            d="M23.9941 22.1951C23.3736 21.9869 22.5623 21.8405 21.6328 21.7653C22.4965 22.8238 23.3413 23.5062 23.9968 23.5062C24.7705 23.5062 25.117 23.2415 25.117 22.9782C25.1184 22.7311 24.6778 22.4248 23.9941 22.1951Z"
            fill="#D52E26"
    />
    <path
            d="M18.1027 10.8793C17.8112 10.8793 17.7441 10.9787 17.6997 11.0445C17.6245 11.156 17.4983 11.4354 17.4983 12.056C17.4983 12.7437 17.6353 13.5497 17.873 14.4108C18.2249 13.312 18.4251 12.3112 18.3969 11.5187C18.3754 10.8793 18.2236 10.8793 18.1027 10.8793Z"
            fill="#D52E26"
    />
</svg>
