<svg width="40" height="40" viewBox="0 0 40 40" fill="none" xmlns="http://www.w3.org/2000/svg">
<path d="M0 8C0 3.58172 3.58172 0 8 0H32C36.4183 0 40 3.58172 40 8V32C40 36.4183 36.4183 40 32 40H8C3.58172 40 0 36.4183 0 32V8Z" fill="#F9E165"/>
<path d="M20.438 30.2475C22.302 30.2426 23.8244 28.7569 23.875 26.8936L23.0235 19.5108C22.9248 18.551 22.1293 17.8133 21.1648 17.7871H19.7007C18.7571 17.8091 17.9693 18.5133 17.842 19.4485L17.001 26.7171C16.9786 27.6439 17.3305 28.5406 17.9772 29.2049C18.6239 29.8692 19.5109 30.245 20.438 30.2475ZM18.6104 26.6548L18.6935 25.9071C18.7638 24.9986 19.5215 24.2972 20.4328 24.2972C21.344 24.2972 22.1018 24.9986 22.172 25.9071L22.2551 26.6548C22.3164 27.0785 22.1878 27.5076 21.9036 27.8278C21.6195 28.148 21.2086 28.3267 20.7806 28.3162H20.0849C19.6475 28.3257 19.2288 28.1391 18.9434 27.8074C18.658 27.4758 18.5359 27.034 18.6104 26.6029V26.6548ZM19.3996 20.7153V20.2896C19.4511 19.7921 19.8703 19.4141 20.3705 19.4141C20.8706 19.4141 21.2898 19.7921 21.3413 20.2896L21.3933 20.7153C21.4272 20.9528 21.3542 21.1931 21.1938 21.3715C21.0335 21.5499 20.8023 21.648 20.5626 21.6395H20.1784C19.9477 21.6329 19.7307 21.5282 19.582 21.3518C19.4333 21.1753 19.3669 20.9438 19.3996 20.7153Z" fill="white"/>
<path d="M20.0277 9.9998H18.5428C18.0984 9.9998 17.7381 10.3601 17.7381 10.8045C17.7381 11.249 18.0984 11.6093 18.5428 11.6093H20.0277C20.4721 11.6093 20.8324 11.249 20.8324 10.8045C20.8324 10.3601 20.4721 9.9998 20.0277 9.9998Z" fill="white"/>
<path d="M21.6787 11.6094H20.1938C19.7494 11.6094 19.3891 11.9697 19.3891 12.4141C19.3891 12.8586 19.7494 13.2189 20.1938 13.2189H21.6787C22.1231 13.2189 22.4834 12.8586 22.4834 12.4141C22.4834 11.9697 22.1231 11.6094 21.6787 11.6094Z" fill="white"/>
<path d="M20.0277 13.2082H18.5428C18.0984 13.2082 17.7381 13.5685 17.7381 14.013C17.7381 14.4574 18.0984 14.8177 18.5428 14.8177H20.0277C20.4721 14.8177 20.8324 14.4574 20.8324 14.013C20.8324 13.5685 20.4721 13.2082 20.0277 13.2082Z" fill="white"/>
<path d="M21.6787 14.8174H20.1938C19.7494 14.8174 19.3891 15.1777 19.3891 15.6221C19.3891 16.0666 19.7494 16.4269 20.1938 16.4269H21.6787C22.1231 16.4269 22.4834 16.0666 22.4834 15.6221C22.4834 15.1777 22.1231 14.8174 21.6787 14.8174Z" fill="white"/>
</svg>
