<svg width="36" height="36" viewBox="0 0 36 36" fill="none" xmlns="http://www.w3.org/2000/svg">
    <rect width="36" height="36" rx="9.75" fill="#34A853"/>
    <path fill-rule="evenodd" clip-rule="evenodd" d="M9 12.875C9 11.9775 9.72754 11.25 10.625 11.25H25.375C26.2725 11.25 27 11.9775 27 12.875V23.125C27 24.0225 26.2725 24.75 25.375 24.75H10.625C9.72754 24.75 9 24.0225 9 23.125V12.875ZM11.25 15.125C11.25 14.2275 11.9775 13.5 12.875 13.5H15.25C16.1475 13.5 16.875 14.2275 16.875 15.125V15.25C16.875 16.1475 16.1475 16.875 15.25 16.875H12.875C11.9775 16.875 11.25 16.1475 11.25 15.25V15.125ZM20.75 19.125C19.8525 19.125 19.125 19.8525 19.125 20.75V20.875C19.125 21.7725 19.8525 22.5 20.75 22.5H23.125C24.0225 22.5 24.75 21.7725 24.75 20.875V20.75C24.75 19.8525 24.0225 19.125 23.125 19.125H20.75ZM11.25 20.75C11.25 19.8525 11.9775 19.125 12.875 19.125H15.25C16.1475 19.125 16.875 19.8525 16.875 20.75V20.875C16.875 21.7725 16.1475 22.5 15.25 22.5H12.875C11.9775 22.5 11.25 21.7725 11.25 20.875V20.75ZM20.75 13.5C19.8525 13.5 19.125 14.2275 19.125 15.125V15.25C19.125 16.1475 19.8525 16.875 20.75 16.875H23.125C24.0225 16.875 24.75 16.1475 24.75 15.25V15.125C24.75 14.2275 24.0225 13.5 23.125 13.5H20.75Z" fill="white"/>
</svg>
