<svg width="40" height="40" viewBox="0 0 40 40" fill="none" xmlns="http://www.w3.org/2000/svg">
<path d="M0 8C0 3.58172 3.58172 0 8 0H32C36.4183 0 40 3.58172 40 8V32C40 36.4183 36.4183 40 32 40H8C3.58172 40 0 36.4183 0 32V8Z" fill="#E7DEFF"/>
<path d="M25.8004 16.0406C26.9497 16.0406 27.8824 15.1269 27.8824 14C27.8824 12.8734 26.9499 11.9594 25.8004 11.9594C24.651 11.9594 23.7186 12.8731 23.7186 14C23.7186 15.1289 24.6581 16.0406 25.8022 16.0406H25.8004ZM32.7813 26.542L24.9389 19.7121C24.526 19.2386 24.1531 19.3787 23.7186 19.8867L21.8055 21.9171C21.4121 22.3634 20.8377 22.5045 20.5306 22.1406L16.4471 16.7382C16.0035 16.291 15.431 16.3918 15.1735 16.9627L8.09088 26.807C7.83345 27.38 8.14289 28.0052 8.76695 28L32.3661 27.9914C33.0151 27.9955 33.1914 27.0057 32.7754 26.542H32.7813Z" fill="#8400EC"/>
</svg>
