<svg width="40" height="40" viewBox="0 0 40 40" fill="none" xmlns="http://www.w3.org/2000/svg">
<path d="M0 8C0 3.58172 3.58172 0 8 0H32C36.4183 0 40 3.58172 40 8V32C40 36.4183 36.4183 40 32 40H8C3.58172 40 0 36.4183 0 32V8Z" fill="#F3F3F7"/>
<path d="M22.4808 10.0965C22.7777 10.1649 23.0405 10.2738 23.2989 10.4354C23.5573 10.597 23.7666 10.7666 24.3144 11.3144L27.6856 14.6856C28.2334 15.2334 28.403 15.4427 28.5646 15.7011C28.7262 15.9595 28.8351 16.2223 28.9035 16.5192C28.972 16.8162 29 17.0842 29 17.8588V25.1542C29 26.4915 28.8608 26.9764 28.5993 27.4653C28.3378 27.9542 27.9542 28.3378 27.4653 28.5993C26.9764 28.8608 26.4915 29 25.1542 29H15.8458C14.5085 29 14.0236 28.8608 13.5347 28.5993C13.0458 28.3378 12.6622 27.9542 12.4007 27.4653C12.1392 26.9764 12 26.4915 12 25.1542V13.8458C12 12.5085 12.1392 12.0236 12.4007 11.5347C12.6622 11.0458 13.0458 10.6622 13.5347 10.4007C14.0236 10.1392 14.5085 10 15.8458 10H21.1412C21.9158 10 22.1838 10.028 22.4808 10.0965ZM21.8 11.9243C21.6343 11.9243 21.5 12.0586 21.5 12.2243V16C21.5 16.2762 21.7239 16.5 22 16.5H25.7757C25.8553 16.5 25.9316 16.4684 25.9879 16.4122C26.105 16.295 26.105 16.105 25.9879 15.9879L22.0121 12.0121C21.9559 11.9559 21.8796 11.9243 21.8 11.9243Z" fill="#989CB1"/>
</svg>
