<svg width="40" height="40" viewBox="0 0 40 40" fill="none" xmlns="http://www.w3.org/2000/svg">
<path fill-rule="evenodd" clip-rule="evenodd" d="M8 0C3.58172 0 0 3.58172 0 8V32C0 36.4183 3.58172 40 8 40H32C36.4183 40 40 36.4183 40 32V9L31 0H8Z" fill="#D52E26"/>
<path fill-rule="evenodd" clip-rule="evenodd" d="M31 0L40 9H33.5C32.1193 9 31 7.88075 31 6.5V0Z" fill="#9D0700"/>
<path d="M10 23.9996V15.9996H13.4531C14.0469 15.9996 14.5664 16.1168 15.0117 16.3512C15.457 16.5856 15.8034 16.915 16.0508 17.3395C16.2982 17.764 16.4219 18.2601 16.4219 18.8278C16.4219 19.4007 16.2943 19.8968 16.0391 20.3161C15.7865 20.7353 15.431 21.0582 14.9727 21.2848C14.5169 21.5114 13.9844 21.6246 13.375 21.6246H11.3125V19.9371H12.9375C13.1927 19.9371 13.4102 19.8929 13.5898 19.8043C13.7721 19.7132 13.9115 19.5843 14.0078 19.4176C14.1068 19.2509 14.1563 19.0543 14.1563 18.8278C14.1563 18.5986 14.1068 18.4033 14.0078 18.2418C13.9115 18.0778 13.7721 17.9528 13.5898 17.8668C13.4102 17.7783 13.1927 17.734 12.9375 17.734H12.1719V23.9996H10Z" fill="white"/>
<path d="M20.2969 23.9996H17.2188V15.9996H20.2656C21.0885 15.9996 21.7995 16.1598 22.3984 16.4801C23 16.7978 23.4635 17.2562 23.7891 17.8551C24.1172 18.4515 24.2812 19.1663 24.2812 19.9996C24.2812 20.833 24.1185 21.5491 23.793 22.1481C23.4674 22.7444 23.0065 23.2028 22.4102 23.5231C21.8138 23.8408 21.1094 23.9996 20.2969 23.9996ZM19.3906 22.1559H20.2188C20.6146 22.1559 20.9518 22.0921 21.2305 21.9645C21.5117 21.8369 21.7253 21.6168 21.8711 21.3043C22.0195 20.9918 22.0938 20.5569 22.0938 19.9996C22.0938 19.4424 22.0182 19.0075 21.8672 18.695C21.7188 18.3825 21.5 18.1624 21.2109 18.0348C20.9245 17.9072 20.5729 17.8434 20.1562 17.8434H19.3906V22.1559Z" fill="white"/>
<path d="M25.2861 23.9996V15.9996H30.9111V17.7496H27.458V19.1246H30.5674V20.8746H27.458V23.9996H25.2861Z" fill="white"/>
</svg>
