<svg width="40" height="40" viewBox="0 0 40 40" fill="none" xmlns="http://www.w3.org/2000/svg">
<path fill-rule="evenodd" clip-rule="evenodd" d="M8 0C3.58172 0 0 3.58172 0 8V32C0 36.4183 3.58172 40 8 40H32C36.4183 40 40 36.4183 40 32V9L31 0H8Z" fill="#82EB8C"/>
<path fill-rule="evenodd" clip-rule="evenodd" d="M31 0L40 9H33.5C32.1193 9 31 7.88075 31 6.5V0Z" fill="#26A44D"/>
<path d="M17.2539 12H12.2984L18.0049 19.8878L12 28.4981H20.2561V26.2953L18.061 26.2926L20.2266 23.0687L24.0134 28.4807H28.5143L22.4781 19.8375L28.2569 12.0181H23.3718L20.2769 16.6437L17.2539 12Z" fill="#26A44D"/>
</svg>
