<svg width="40" height="40" viewBox="0 0 40 40" fill="none" xmlns="http://www.w3.org/2000/svg">
<path fill-rule="evenodd" clip-rule="evenodd" d="M8 0C3.58172 0 0 3.58172 0 8V32C0 36.4183 3.58172 40 8 40H32C36.4183 40 40 36.4183 40 32V9L31 0H8Z" fill="#A3D3FF"/>
<path fill-rule="evenodd" clip-rule="evenodd" d="M31 0L40 9H33.5C32.1193 9 31 7.88075 31 6.5V0Z" fill="#007AFF"/>
<path d="M14.2241 12.0005H10.9999L14.37 27.9979H17.6763L19.8663 18.6836L21.9696 28H25.0787L28.9999 12H23.5508V14.6643H25.4081L23.5241 22.3148L21.5774 12H18.4618L16.044 22.4625L14.2241 12.0005Z" fill="#007AFF"/>
</svg>
