<svg width="105" height="100" viewBox="0 0 105 100" fill="none" xmlns="http://www.w3.org/2000/svg">
    <path d="M54.353 100C81.9673 100 104.353 77.6142 104.353 50C104.353 22.3858 81.9673 0 54.353 0C26.7388 0 4.35303 22.3858 4.35303 50C4.35303 77.6142 26.7388 100 54.353 100Z" fill="url(#paint0_radial_1954_107668)"/>
    <g style="mix-blend-mode:soft-light">
        <path d="M54.353 100C81.9673 100 104.353 77.6142 104.353 50C104.353 22.3858 81.9673 0 54.353 0C26.7388 0 4.35303 22.3858 4.35303 50C4.35303 77.6142 26.7388 100 54.353 100Z" fill="url(#paint1_radial_1954_107668)"/>
    </g>
    <g style="mix-blend-mode:soft-light">
        <path d="M54.353 100C81.9673 100 104.353 77.6142 104.353 50C104.353 22.3858 81.9673 0 54.353 0C26.7388 0 4.35303 22.3858 4.35303 50C4.35303 77.6142 26.7388 100 54.353 100Z" fill="url(#paint2_radial_1954_107668)"/>
    </g>
    <g style="mix-blend-mode:overlay">
        <path d="M54.353 100C81.9673 100 104.353 77.6142 104.353 50C104.353 22.3858 81.9673 0 54.353 0C26.7388 0 4.35303 22.3858 4.35303 50C4.35303 77.6142 26.7388 100 54.353 100Z" fill="url(#paint3_radial_1954_107668)" fill-opacity="0.7"/>
    </g>
    <mask id="mask0_1954_107668" style="mask-type:alpha" maskUnits="userSpaceOnUse" x="4" y="0" width="101" height="100">
        <path d="M54.147 100C81.7612 100 104.147 77.6142 104.147 50C104.147 22.3858 81.7612 0 54.147 0C26.5327 0 4.14697 22.3858 4.14697 50C4.14697 77.6142 26.5327 100 54.147 100Z" fill="white"/>
    </mask>
    <g mask="url(#mask0_1954_107668)">
        <g filter="url(#filter0_f_1954_107668)">
            <path d="M3.86202 48.5733C3.91631 47.8629 4.1501 47.7917 4.21829 48.5131C4.29405 49.3146 4.14678 50.9258 4.18223 51.8977C4.27612 54.4712 4.67061 56.7088 5.07728 58.5289C6.3878 64.3941 8.20267 68.1736 9.89542 71.3757C15.4596 81.9015 21.5547 87.2315 27.5007 91.2485C36.2165 97.1367 45.0032 99.0097 53.7969 99.407C54.0188 99.417 54.0557 100.862 53.8375 101.05C53.444 101.389 52.9565 101.052 52.5539 101.038C51.3972 100.998 50.2404 100.918 49.0838 100.798C45.6541 100.442 42.2247 99.716 38.8022 98.5483C29.4965 95.3734 19.4629 89.937 10.7003 74.625C10.149 73.6618 9.60218 72.6476 9.06305 71.5579C8.63189 70.6863 8.20493 69.7728 7.78548 68.7957C6.40585 65.5819 3.19087 57.355 3.86202 48.5733ZM53.8031 101.065C53.5915 101.072 53.5379 99.725 53.7396 99.4454C54.0445 99.0227 54.5014 99.3708 54.8228 99.3507C56.1576 99.2673 57.4922 99.1435 58.8263 98.976C62.4844 98.5166 66.1399 97.7323 69.7872 96.5245C78.8336 93.5287 88.5593 88.9615 97.0872 74.9296C97.6299 74.0365 98.168 73.0891 98.6988 72.0707C100.312 68.9758 104.355 60.7603 103.887 50.5474C103.848 49.6864 104.11 49.1707 104.228 49.9093C104.377 50.8497 104.316 52.8102 104.275 53.8534C104.143 57.1943 103.63 60.0197 103.089 62.3014C101.375 69.5327 98.9678 73.7255 96.7635 77.2263C89.5988 88.6053 81.8171 93.1925 74.2516 96.4888C67.466 99.4454 60.6287 100.855 53.8031 101.065Z" fill="#401C02"/>
        </g>
        <g filter="url(#filter1_f_1954_107668)">
            <path d="M3.86202 48.5733C3.91631 47.8629 4.1501 47.7917 4.21829 48.5131C4.29405 49.3146 4.14678 50.9258 4.18223 51.8977C4.27612 54.4712 4.67061 56.7088 5.07728 58.5289C6.3878 64.3941 8.20267 68.1736 9.89542 71.3757C15.4596 81.9015 21.5547 87.2315 27.5007 91.2485C36.2165 97.1367 45.0032 99.0097 53.7969 99.407C54.0188 99.417 54.0557 100.862 53.8375 101.05C53.444 101.389 52.9565 101.052 52.5539 101.038C51.3972 100.998 50.2404 100.918 49.0838 100.798C45.6541 100.442 42.2247 99.716 38.8022 98.5483C29.4965 95.3734 19.4629 89.937 10.7003 74.625C10.149 73.6618 9.60218 72.6476 9.06305 71.5579C8.63189 70.6863 8.20493 69.7728 7.78548 68.7957C6.40585 65.5819 3.19087 57.355 3.86202 48.5733ZM53.8031 101.065C53.5915 101.072 53.5379 99.725 53.7396 99.4454C54.0445 99.0227 54.5014 99.3708 54.8228 99.3507C56.1576 99.2673 57.4922 99.1435 58.8263 98.976C62.4844 98.5166 66.1399 97.7323 69.7872 96.5245C78.8336 93.5287 88.5593 88.9615 97.0872 74.9296C97.6299 74.0365 98.168 73.0891 98.6988 72.0707C100.312 68.9758 104.355 60.7603 103.887 50.5474C103.848 49.6864 104.11 49.1707 104.228 49.9093C104.377 50.8497 104.316 52.8102 104.275 53.8534C104.143 57.1943 103.63 60.0197 103.089 62.3014C101.375 69.5327 98.9678 73.7255 96.7635 77.2263C89.5988 88.6053 81.8171 93.1925 74.2516 96.4888C67.466 99.4454 60.6287 100.855 53.8031 101.065Z" fill="#401C02"/>
        </g>
    </g>
    <path d="M64.4585 70.7832V78.7938C64.458 81.3425 63.4451 83.7866 61.6428 85.5885C59.8404 87.3905 57.3961 88.4028 54.8475 88.4028H53.4108C50.8623 88.4028 48.4182 87.3904 46.6162 85.5884C44.8141 83.7864 43.8018 81.3423 43.8018 78.7938V70.7853C46.7622 71.7762 50.3135 72.3526 54.1301 72.3526C57.9468 72.3526 61.4981 71.7804 64.4585 70.7832Z" fill="url(#paint4_radial_1954_107668)"/>
    <path d="M54.8659 59.7064H53.3918C47.9487 59.7064 43.5361 64.119 43.5361 69.5621V78.9141C43.5361 84.3572 47.9487 88.7698 53.3918 88.7698H54.8659C60.309 88.7698 64.7216 84.3572 64.7216 78.9141V69.5621C64.7216 64.119 60.309 59.7064 54.8659 59.7064Z" stroke="url(#paint5_linear_1954_107668)" stroke-width="0.841488" stroke-miterlimit="10"/>
    <path d="M64.4585 69.676V70.7831C61.4981 71.7761 57.9468 72.3524 54.1301 72.3524C50.3135 72.3524 46.7622 71.7761 43.8018 70.7852V69.676C43.8018 67.1276 44.8141 64.6835 46.6162 62.8814C48.4182 61.0794 50.8623 60.067 53.4108 60.067H54.8475C57.3961 60.067 59.8404 61.0793 61.6428 62.8813C63.4451 64.6833 64.458 67.1274 64.4585 69.676V69.676Z" fill="url(#paint6_linear_1954_107668)"/>
    <path d="M54.845 60.0692H53.4104C48.1023 60.0692 43.7993 64.3722 43.7993 69.6803V78.7938C43.7993 84.1019 48.1023 88.4049 53.4104 88.4049H54.845C60.1531 88.4049 64.4561 84.1019 64.4561 78.7938V69.6803C64.4561 64.3722 60.1531 60.0692 54.845 60.0692Z" stroke="url(#paint7_linear_1954_107668)" stroke-width="0.820964" stroke-miterlimit="10"/>
    <mask id="mask1_1954_107668" style="mask-type:alpha" maskUnits="userSpaceOnUse" x="43" y="60" width="22" height="29">
        <path d="M54.845 60.0692H53.4104C48.1023 60.0692 43.7993 64.3722 43.7993 69.6803V78.7938C43.7993 84.1019 48.1023 88.4049 53.4104 88.4049H54.845C60.1531 88.4049 64.4561 84.1019 64.4561 78.7938V69.6803C64.4561 64.3722 60.1531 60.0692 54.845 60.0692Z" fill="url(#paint8_linear_1954_107668)"/>
    </mask>
    <g mask="url(#mask1_1954_107668)">
        <g filter="url(#filter2_f_1954_107668)">
            <path d="M54.845 60.0692H53.4104C48.1023 60.0692 43.7993 64.3722 43.7993 69.6803V78.7938C43.7993 84.1019 48.1023 88.4049 53.4104 88.4049H54.845C60.1531 88.4049 64.4561 84.1019 64.4561 78.7938V69.6803C64.4561 64.3722 60.1531 60.0692 54.845 60.0692Z" stroke="#42210B" stroke-width="1.23145" stroke-miterlimit="10"/>
        </g>
    </g>
    <path d="M60.6798 40.2086C62.4358 38.0899 70.9688 29.3205 85.8084 38.2868C86.3012 38.5761 86.6727 39.034 86.8541 39.576C87.0355 40.1179 87.0146 40.7072 86.7952 41.2348C86.4987 41.9065 85.883 42.3585 84.6453 41.8879C81.7575 40.787 72.6211 37.327 62.527 41.4546C62.527 41.4546 61.1442 42.3108 60.5741 41.465C60.4551 41.2717 60.4012 41.0455 60.4202 40.8194C60.4393 40.5933 60.5303 40.3792 60.6798 40.2086Z" fill="url(#paint9_radial_1954_107668)"/>
    <path d="M60.6798 40.2086C62.4358 38.0899 70.9688 29.3205 85.8084 38.2868C86.3012 38.5761 86.6727 39.034 86.8541 39.576C87.0355 40.1179 87.0146 40.7072 86.7952 41.2348C86.4987 41.9065 85.883 42.3585 84.6453 41.8879C81.7575 40.787 72.6211 37.327 62.527 41.4546C62.527 41.4546 61.1442 42.3108 60.5741 41.465C60.4551 41.2717 60.4012 41.0455 60.4202 40.8194C60.4393 40.5933 60.5303 40.3792 60.6798 40.2086Z" stroke="url(#paint10_linear_1954_107668)" stroke-width="0.410482" stroke-miterlimit="10"/>
    <path d="M29.2837 54.9862L9.82519 88.844C9.52499 89.3664 9.02957 89.7481 8.44792 89.9051C7.86628 90.0622 7.24605 89.9818 6.72369 89.6816L2.87655 87.4706C2.35418 87.1704 1.97247 86.675 1.81539 86.0933C1.6583 85.5117 1.7387 84.8915 2.03891 84.3691L21.4974 50.5113L29.2837 54.9862Z" fill="black"/>
    <mask id="mask2_1954_107668" style="mask-type:alpha" maskUnits="userSpaceOnUse" x="4" y="0" width="101" height="100">
        <path d="M54.353 100C81.9673 100 104.353 77.6142 104.353 50C104.353 22.3858 81.9673 0 54.353 0C26.7388 0 4.35303 22.3858 4.35303 50C4.35303 77.6142 26.7388 100 54.353 100Z" fill="url(#paint11_radial_1954_107668)"/>
    </mask>
    <g mask="url(#mask2_1954_107668)">
        <g filter="url(#filter3_f_1954_107668)">
            <path d="M23.9208 56.4309C22.822 55.726 21.6818 55.0626 20.5001 54.5236C18.8416 53.7565 17.2453 53.3626 15.4209 53.2175C13.9075 53.1139 12.2076 53.1553 10.9015 54.0468C9.76125 54.8346 9.07712 56.0992 8.74541 57.4053C8.70395 57.5504 8.51737 59.4369 8.4759 59.4577C5.07595 60.7223 4.12231 62.1942 3.31379 63.6454C1.63454 66.7551 3.41744 69.6368 3.41744 69.6368C-2.20077 74.5087 1.53088 79.0903 1.53088 79.0903C-1.72395 82.3037 1.21991 85.0817 1.21991 85.0817L10.7356 91.384C12.2905 92.4206 14.4258 91.9852 15.4624 90.4304C16.499 88.8755 16.0636 86.7402 14.5087 85.7036L16.1465 86.8024C17.8672 87.9426 20.2099 87.4658 21.3501 85.7451L21.9099 84.8951C23.0501 83.1744 22.5733 80.8318 20.8526 79.6915L20.583 79.5049C22.4489 80.7488 24.9988 80.2305 26.2427 78.3647L26.4086 78.0952C26.4086 78.0952 25.6 79.6915 27.4037 80.8939C30.4305 82.9049 31.3012 80.9769 31.3012 80.9769C31.3012 80.9769 36.5255 72.2697 37.9352 70.1136C39.345 67.9576 37.4377 63.8527 37.4377 63.8527C32.5865 55.8504 29.9329 60.2869 23.9208 56.4309Z" fill="#8D3300"/>
        </g>
    </g>
    <path d="M23.9218 54.3578C22.823 53.6529 21.6828 52.9895 20.5011 52.4505C18.8426 51.6834 17.2463 51.2895 15.4219 51.1444C13.9085 51.0408 12.2085 51.0822 10.9025 51.9737C9.76223 52.7615 9.07809 54.0261 8.74639 55.3322C8.70493 55.4773 8.51834 57.3638 8.47688 57.3846C5.07693 58.6492 4.12329 60.1211 3.31476 61.5723C1.63552 64.682 3.41842 67.5637 3.41842 67.5637C-2.19979 72.4356 1.53186 77.0172 1.53186 77.0172C-1.72297 80.2306 1.22089 83.0086 1.22089 83.0086L10.7366 89.3109C12.2915 90.3475 14.4268 89.9121 15.4634 88.3573C16.4999 86.8024 16.0646 84.6671 14.5097 83.6305L16.1475 84.7293C17.8682 85.8695 20.2109 85.3927 21.3511 83.672L21.9108 82.822C23.0511 81.1013 22.5742 78.7586 20.8535 77.6184L20.584 77.4318C22.4498 78.6757 24.9998 78.1574 26.2437 76.2916L26.4095 76.0221C26.4095 76.0221 25.601 77.6184 27.4047 78.8208C30.4314 80.8318 31.3022 78.9038 31.3022 78.9038C31.3022 78.9038 36.5265 70.1966 37.9362 68.0405C39.3459 65.8844 37.4387 61.7796 37.4387 61.7796C32.5875 53.7773 29.9339 58.2138 23.9218 54.3578Z" fill="url(#paint12_radial_1954_107668)"/>
    <path d="M29.2084 55.0626L27.6742 57.7162L20.2109 52.7614L21.4548 50.5846L29.2084 55.0626Z" fill="black"/>
    <mask id="mask3_1954_107668" style="mask-type:alpha" maskUnits="userSpaceOnUse" x="0" y="51" width="39" height="39">
        <path d="M23.9218 54.3578C22.823 53.6529 21.6828 52.9895 20.5011 52.4505C18.8426 51.6834 17.2463 51.2895 15.4219 51.1444C13.9085 51.0408 12.2085 51.0822 10.9025 51.9737C9.76223 52.7615 9.07809 54.0261 8.74639 55.3322C8.70493 55.4773 8.51834 57.3638 8.47688 57.3846C5.07693 58.6492 4.12329 60.1211 3.31476 61.5723C1.63552 64.682 3.41842 67.5637 3.41842 67.5637C-2.19979 72.4356 1.53186 77.0172 1.53186 77.0172C-1.72297 80.2306 1.22089 83.0086 1.22089 83.0086L10.7366 89.3109C12.2915 90.3475 14.4268 89.9121 15.4634 88.3573C16.4999 86.8024 16.0646 84.6671 14.5097 83.6305L16.1475 84.7293C17.8682 85.8695 20.2109 85.3927 21.3511 83.672L21.9108 82.822C23.0511 81.1013 22.5742 78.7586 20.8535 77.6184L20.584 77.4318C22.4498 78.6757 24.9998 78.1574 26.2437 76.2916L26.4095 76.0221C26.4095 76.0221 25.601 77.6184 27.4047 78.8208C30.4314 80.8318 31.3022 78.9038 31.3022 78.9038C31.3022 78.9038 36.5265 70.1966 37.9362 68.0405C39.3459 65.8844 37.4387 61.7796 37.4387 61.7796C32.5875 53.7773 29.9339 58.2138 23.9218 54.3578Z" fill="url(#paint13_radial_1954_107668)"/>
    </mask>
    <g mask="url(#mask3_1954_107668)">
        <g opacity="0.4" filter="url(#filter4_f_1954_107668)">
            <path opacity="0.4" d="M20.9158 52.4504C19.7963 51.9736 18.6147 51.6626 17.433 51.476C16.8318 51.4138 16.2305 51.3516 15.6293 51.3309C15.0281 51.3102 14.4269 51.3102 13.8464 51.3931C13.266 51.476 12.6855 51.6004 12.1672 51.8492C11.6489 52.0772 11.1928 52.4297 10.7989 52.8443C10.4258 53.2589 10.1148 53.7565 9.88674 54.2955C9.78308 54.565 9.67942 54.8345 9.5965 55.104C9.57577 55.1662 9.55503 55.2491 9.5343 55.3113L9.51357 55.415L9.49284 55.4979L9.45138 55.9333L9.34772 56.8454C9.32699 56.9906 9.30626 57.1564 9.28553 57.3015L9.2648 57.3637C9.2648 57.3845 9.2648 57.4052 9.24406 57.4674V57.4881C9.22333 57.5088 9.26479 57.4674 9.22333 57.5503C9.18187 57.6332 9.09894 57.6954 9.01602 57.7162L8.99529 57.7576L8.95382 57.7784L8.74651 57.8613C8.18676 58.0893 7.66848 58.3381 7.15019 58.6283C6.13435 59.1881 5.2429 59.9552 4.62096 60.9295C4.45511 61.1783 4.30999 61.4271 4.16487 61.6759C4.08194 61.8002 4.04048 61.9246 3.97829 62.0698C3.91609 62.1941 3.8539 62.3185 3.81244 62.4636L3.66732 62.8575L3.56366 63.2722C3.5222 63.4173 3.5222 63.5417 3.48073 63.6868C3.48073 63.749 3.46 63.8319 3.46 63.8941L3.43927 64.1014C3.39781 64.6612 3.46 65.2417 3.58439 65.8014C3.64658 66.0709 3.72951 66.3612 3.83317 66.6307C3.93682 66.9002 4.06121 67.1697 4.1856 67.3977L4.35145 67.688L4.10268 67.8953C3.43927 68.455 2.83806 69.077 2.34051 69.7818C2.09173 70.1343 1.88442 70.4867 1.6771 70.8806C1.49052 71.2538 1.3454 71.6684 1.22101 72.0623C1.0137 72.8708 0.972233 73.7415 1.13808 74.5708C1.22101 74.9854 1.3454 75.4 1.51125 75.7939C1.6771 76.1878 1.88442 76.5817 2.11246 76.9134L2.23685 77.0793L2.09173 77.2037C1.69783 77.5768 1.3454 77.9915 1.05516 78.4683C0.785651 78.9244 0.578337 79.4634 0.536874 80.0024C0.47468 80.5414 0.557605 81.1012 0.764919 81.6195C0.951502 82.1378 1.24174 82.6353 1.61491 83.0499C1.20028 82.656 0.868576 82.1999 0.619799 81.6817C0.371023 81.1634 0.246634 80.5829 0.267366 80.0024C0.288097 79.4219 0.453948 78.8415 0.723456 78.3232C0.992965 77.8049 1.3454 77.3281 1.76003 76.9134L1.7393 77.2244C1.42832 76.8512 1.22101 76.4573 1.0137 76.022C0.806382 75.6074 0.661262 75.1513 0.557605 74.7159C0.350291 73.8037 0.350291 72.8501 0.557605 71.9172C0.661262 71.4611 0.827113 71.005 1.0137 70.5904C1.22101 70.1757 1.44906 69.7611 1.71856 69.3879C2.23685 68.6209 2.87952 67.9367 3.56366 67.3355L3.48073 67.8331C3.29415 67.5221 3.16976 67.2526 3.04537 66.9416C2.92099 66.6514 2.83806 66.3404 2.75513 66.0295C2.61001 65.4075 2.54782 64.7441 2.56855 64.1014L2.58928 63.8527C2.58928 63.7697 2.61001 63.6868 2.63075 63.6039C2.65148 63.438 2.67221 63.2722 2.71367 63.1271L2.83806 62.6502L3.00391 62.1941C3.04537 62.0283 3.1283 61.9039 3.21123 61.7588C3.27342 61.6137 3.35634 61.4685 3.43927 61.3234C3.58439 61.0539 3.75024 60.7844 3.93682 60.5149C4.28926 59.9759 4.70389 59.4783 5.20144 59.0637C5.67826 58.6283 6.21728 58.2759 6.7563 57.9857C7.31604 57.6747 7.87579 57.4259 8.45627 57.2186L8.68432 57.1357L8.74651 57.1149H8.76724C8.70505 57.1357 8.62212 57.1979 8.58066 57.2808C8.5392 57.3637 8.55993 57.3015 8.55993 57.3223V57.343C8.55993 57.3637 8.55993 57.343 8.55993 57.3223V57.2808C8.58066 57.1357 8.60139 56.9906 8.62212 56.8454L8.74651 55.954L8.8087 55.4979C8.8087 55.4564 8.8087 55.4357 8.82944 55.3528L8.8709 55.2284C8.89163 55.1455 8.91236 55.0833 8.93309 55.0003C9.03675 54.6894 9.14041 54.3991 9.28553 54.1089C9.55504 53.5284 9.90747 52.9894 10.3636 52.5126C10.8197 52.0358 11.3587 51.6626 11.9599 51.4345C12.5611 51.1858 13.183 51.0821 13.805 51.0199C14.4269 50.9785 15.0489 50.9992 15.6708 51.0406C16.2927 51.1028 16.894 51.1858 17.4952 51.3102C18.6769 51.476 19.8378 51.8906 20.9158 52.4504Z" fill="#B04B02"/>
        </g>
    </g>
    <mask id="mask4_1954_107668" style="mask-type:alpha" maskUnits="userSpaceOnUse" x="0" y="51" width="39" height="39">
        <path d="M23.9218 54.3578C22.823 53.6529 21.6828 52.9895 20.5011 52.4505C18.8426 51.6834 17.2463 51.2895 15.4219 51.1444C13.9085 51.0408 12.2085 51.0822 10.9025 51.9737C9.76223 52.7615 9.07809 54.0261 8.74639 55.3322C8.70493 55.4773 8.51834 57.3638 8.47688 57.3846C5.07693 58.6492 4.12329 60.1211 3.31476 61.5723C1.63552 64.682 3.41842 67.5637 3.41842 67.5637C-2.19979 72.4356 1.53186 77.0172 1.53186 77.0172C-1.72297 80.2306 1.22089 83.0086 1.22089 83.0086L10.7366 89.3109C12.2915 90.3475 14.4268 89.9121 15.4634 88.3573C16.4999 86.8024 16.0646 84.6671 14.5097 83.6305L16.1475 84.7293C17.8682 85.8695 20.2109 85.3927 21.3511 83.672L21.9108 82.822C23.0511 81.1013 22.5742 78.7586 20.8535 77.6184L20.584 77.4318C22.4498 78.6757 24.9998 78.1574 26.2437 76.2916L26.4095 76.0221C26.4095 76.0221 25.601 77.6184 27.4047 78.8208C30.4314 80.8318 31.3022 78.9038 31.3022 78.9038C31.3022 78.9038 36.5265 70.1966 37.9362 68.0405C39.3459 65.8844 37.4387 61.7796 37.4387 61.7796C32.5875 53.7773 29.9339 58.2138 23.9218 54.3578Z" fill="url(#paint14_radial_1954_107668)"/>
    </mask>
    <g mask="url(#mask4_1954_107668)">
        <g style="mix-blend-mode:multiply" filter="url(#filter5_f_1954_107668)">
            <path d="M14.4885 83.6511C16.0641 84.6877 16.4787 86.823 15.4422 88.3779C14.9239 89.1657 14.1361 89.6632 13.2654 89.8291C12.4154 89.9949 11.4825 89.8498 10.6947 89.3315L10.5288 89.2279C11.9385 88.5852 14.219 87.0096 14.4885 83.6511Z" fill="#E7834A"/>
            <path d="M20.8322 77.5975L20.853 77.6183C22.5737 78.7585 23.0505 81.1011 21.9103 82.8218L21.3505 83.6718C20.2103 85.3925 17.8677 85.8694 16.5408 84.9779L15.8774 84.5425C17.2664 84.0657 20.0237 82.4694 20.8322 77.5975Z" fill="#E7834A"/>
            <path d="M26.1603 69.9062C27.7151 71.2123 28.0883 73.5342 26.9273 75.2757L26.2432 76.2915C25.1029 78.0122 22.8847 78.572 21.0811 77.722C22.553 76.9757 25.2688 74.944 26.1603 69.9062Z" fill="#E7834A"/>
            <path d="M31.8194 60.6187C33.4572 62.3186 33.7475 64.993 32.3999 67.0247L32.0268 67.5844C30.6999 69.5746 28.1914 70.3624 26.0146 69.5954C27.6939 68.4551 30.4719 65.8637 31.8194 60.6187Z" fill="#E7834A"/>
        </g>
    </g>
    <mask id="mask5_1954_107668" style="mask-type:alpha" maskUnits="userSpaceOnUse" x="0" y="51" width="39" height="39">
        <path d="M23.9218 54.3578C22.823 53.6529 21.6828 52.9895 20.5011 52.4505C18.8426 51.6834 17.2463 51.2895 15.4219 51.1444C13.9085 51.0408 12.2085 51.0822 10.9025 51.9737C9.76223 52.7615 9.07809 54.0261 8.74639 55.3322C8.70493 55.4773 8.51834 57.3638 8.47688 57.3846C5.07693 58.6492 4.12329 60.1211 3.31476 61.5723C1.63552 64.682 3.41842 67.5637 3.41842 67.5637C-2.19979 72.4356 1.53186 77.0172 1.53186 77.0172C-1.72297 80.2306 1.22089 83.0086 1.22089 83.0086L10.7366 89.3109C12.2915 90.3475 14.4268 89.9121 15.4634 88.3573C16.4999 86.8024 16.0646 84.6671 14.5097 83.6305L16.1475 84.7293C17.8682 85.8695 20.2109 85.3927 21.3511 83.672L21.9108 82.822C23.0511 81.1013 22.5742 78.7586 20.8535 77.6184L20.584 77.4318C22.4498 78.6757 24.9998 78.1574 26.2437 76.2916L26.4095 76.0221C26.4095 76.0221 25.601 77.6184 27.4047 78.8208C30.4314 80.8318 31.3022 78.9038 31.3022 78.9038C31.3022 78.9038 36.5265 70.1966 37.9362 68.0405C39.3459 65.8844 37.4387 61.7796 37.4387 61.7796C32.5875 53.7773 29.9339 58.2138 23.9218 54.3578Z" fill="url(#paint15_radial_1954_107668)"/>
    </mask>
    <g mask="url(#mask5_1954_107668)">
        <g filter="url(#filter6_f_1954_107668)">
            <path d="M18.4688 51.6005C19.3602 51.8492 20.2517 52.1395 21.0809 52.5541C21.9309 52.948 22.7394 53.4041 23.5479 53.8602C23.9418 54.0882 24.3357 54.337 24.7504 54.5651C24.9577 54.6687 25.1443 54.7724 25.3723 54.876L25.6833 55.0211L25.9943 55.1455C26.2016 55.2285 26.4296 55.3114 26.6369 55.3736C26.865 55.4358 27.0723 55.5187 27.3003 55.5602C27.7357 55.6846 28.1918 55.7675 28.6479 55.8297C29.5601 55.9748 30.4722 56.037 31.4051 56.2028C31.882 56.2858 32.3381 56.4101 32.7942 56.5967C33.2502 56.7833 33.6649 57.0114 34.0795 57.2809C34.4941 57.5504 34.8466 57.8613 35.199 58.1931C35.5307 58.5248 35.8624 58.8772 36.1734 59.2504C36.7746 59.976 37.2929 60.7637 37.7904 61.5723V61.593V61.6137C38.0392 62.1527 38.2258 62.6918 38.4124 63.2515C38.5782 63.8113 38.7233 64.371 38.8063 64.9515C38.8892 65.532 38.9306 66.1332 38.8685 66.7344C38.827 67.0454 38.7648 67.3356 38.6611 67.6258C38.6197 67.771 38.5368 67.9161 38.4746 68.0612L38.3502 68.2685C38.3087 68.3307 38.2672 68.3929 38.2258 68.4551C37.0026 70.3624 35.8002 72.3111 34.5978 74.2599L32.7942 77.1623L31.9027 78.6135L31.6747 78.9866C31.6125 79.0903 31.5088 79.2562 31.4051 79.3598C31.1978 79.5879 30.9283 79.7744 30.6381 79.8988C30.0576 80.1269 29.4149 80.0854 28.8552 79.9196C28.2954 79.733 27.7772 79.4427 27.3003 79.1318C26.8028 78.8208 26.3881 78.344 26.2016 77.7842C26.015 77.2245 26.0357 76.6025 26.2845 76.0635L26.865 75.2343L26.326 76.0843C26.1394 76.6025 26.1186 77.2037 26.326 77.722C26.5333 78.2403 26.9272 78.6549 27.404 78.9245C27.8808 79.2147 28.3991 79.4635 28.9174 79.6086C29.4357 79.7537 30.0161 79.7744 30.493 79.5464C30.721 79.4427 30.9491 79.2769 31.1149 79.0903C31.1978 78.9866 31.26 78.9037 31.3222 78.7586L31.5295 78.3854L32.4003 76.9135L34.1417 73.9696C35.3234 72.0209 36.4636 70.0514 37.7075 68.1234C38.3294 67.2734 38.3294 66.1124 38.1843 65.0344C38.0185 63.9564 37.666 62.8576 37.2307 61.8418L37.2514 61.8625C36.7746 61.0747 36.2563 60.3077 35.6965 59.6028C35.4063 59.2504 35.1161 58.9186 34.7844 58.5869C34.4527 58.276 34.121 57.9857 33.7478 57.737C33.3746 57.4882 32.9807 57.2601 32.5868 57.0943C32.1722 56.9284 31.7369 56.804 31.3015 56.7211C30.41 56.5345 29.4771 56.4516 28.5649 56.2858C27.632 56.1199 26.7199 55.8711 25.8491 55.4772L25.5174 55.3321L25.2065 55.1663C24.9991 55.0626 24.7918 54.9382 24.5845 54.8346C24.1699 54.6065 23.7967 54.337 23.4028 54.0882C22.6358 53.5907 21.8272 53.1139 21.0187 52.6785C20.2102 52.2431 19.3395 51.9114 18.4688 51.6005Z" fill="#923D00"/>
            <path d="M5.80159 77.8669C8.16497 79.2352 10.4662 80.6449 12.7673 82.0961C13.3478 82.4486 13.9076 82.8217 14.488 83.1949L14.6954 83.34L14.9234 83.5059C15.0063 83.5681 15.0685 83.6303 15.1515 83.6925C15.2136 83.7547 15.2966 83.8169 15.3588 83.879C15.6283 84.1486 15.8356 84.4595 16.0222 84.7912C16.2088 85.1229 16.3124 85.4961 16.3746 85.8693C16.4368 86.2424 16.4575 86.6156 16.3953 87.0095C16.3746 87.1961 16.3331 87.3827 16.2917 87.5692C16.2295 87.7558 16.188 87.9424 16.0844 88.1083C16.0222 88.2948 15.9185 88.44 15.8149 88.6058C15.7112 88.7509 15.6075 88.9168 15.4624 89.0619C15.2136 89.3521 14.9027 89.5802 14.5917 89.7875C14.26 89.9948 13.9076 90.1192 13.5344 90.2229C13.1612 90.3058 12.7881 90.3472 12.4149 90.3265C12.0417 90.3058 11.6686 90.2436 11.3161 90.0985C11.2332 90.0777 11.1503 90.0363 11.0466 89.9948C10.9637 89.9533 10.8808 89.9119 10.7979 89.8704L10.5491 89.7253C10.4662 89.6838 10.404 89.6216 10.3418 89.5802L9.49178 88.9997C8.93203 88.6265 8.37228 88.2326 7.81254 87.8387C5.59428 86.2839 3.37602 84.7083 1.19922 83.0705C3.5626 84.4181 5.86378 85.8485 8.16497 87.2997C8.74545 87.6522 9.3052 88.0253 9.88568 88.3985L10.7357 88.9582C10.7979 88.9997 10.8808 89.0619 10.943 89.0826L11.1296 89.1863C11.1918 89.2277 11.2747 89.2485 11.3369 89.2899C11.3991 89.3314 11.482 89.3521 11.5442 89.3729C11.8344 89.4765 12.1247 89.518 12.4149 89.5387C12.7051 89.5594 13.0161 89.518 13.3064 89.4558C13.5966 89.3936 13.8868 89.2692 14.1356 89.1034C14.3844 88.9582 14.6332 88.7509 14.8197 88.5229C14.9234 88.4192 15.0063 88.2948 15.0893 88.1704C15.1722 88.0461 15.2551 87.9217 15.2966 87.7765C15.3588 87.6522 15.4002 87.507 15.4624 87.3619C15.5039 87.2168 15.5453 87.0717 15.5453 86.9266C15.6283 86.3254 15.5246 85.7241 15.2551 85.1851C15.1307 84.9156 14.9649 84.6668 14.7576 84.4388C14.7161 84.3766 14.6539 84.3351 14.5917 84.2729C14.5295 84.2108 14.488 84.1693 14.4259 84.1278L14.2393 83.9827L14.032 83.8376C13.4722 83.4644 12.9125 83.0705 12.3527 82.6766C10.1759 81.0803 7.95766 79.5255 5.80159 77.8669Z" fill="#923D00"/>
            <path d="M10.5287 70.7562C13.2238 72.3525 15.8982 74.0111 18.5311 75.6903C19.1945 76.1049 19.8579 76.5196 20.5213 76.9549L21.0188 77.2659C21.1018 77.3073 21.1847 77.3903 21.2676 77.4525L21.392 77.5561L21.5164 77.6598C21.8481 77.9293 22.1176 78.2817 22.3456 78.6549C22.8017 79.4012 22.9883 80.2927 22.9054 81.1427C22.8639 81.578 22.7603 81.9926 22.5944 82.4073C22.553 82.5109 22.5115 82.6146 22.4493 82.6975L22.2834 82.9878C22.1798 83.1743 22.0761 83.3195 21.9517 83.4853C21.8481 83.6512 21.7444 83.7963 21.62 83.9829L21.4335 84.2524C21.3713 84.3353 21.2883 84.4182 21.2054 84.5011C20.8944 84.8121 20.5627 85.0816 20.1688 85.2889C19.4018 85.6828 18.5103 85.8694 17.6603 85.745C17.225 85.6828 16.8104 85.5584 16.4165 85.3719L16.2713 85.3097L16.1262 85.2267C16.0433 85.1645 15.9396 85.1231 15.8567 85.0609L15.3799 84.7292C14.7372 84.2938 14.0945 83.8377 13.4519 83.4024C10.8812 81.6195 8.31048 79.8158 5.78125 77.9293C8.49706 79.5256 11.1507 81.1841 13.8043 82.8634C14.4677 83.278 15.1311 83.7134 15.7945 84.128L16.2921 84.4389C16.375 84.5011 16.4579 84.5219 16.5201 84.5841L16.6445 84.6463L16.7689 84.7085C17.0799 84.8536 17.4323 84.9572 17.7847 84.9987C18.4896 85.0816 19.1945 84.9365 19.8164 84.6255C20.1274 84.4597 20.3969 84.2316 20.6457 83.9829L20.8115 83.7963L20.9566 83.589C21.0603 83.4438 21.1639 83.2573 21.2883 83.1121C21.392 82.9463 21.5164 82.7804 21.5993 82.6353L21.7237 82.4073L21.8274 82.1792C21.9725 81.8683 22.0554 81.5158 22.0969 81.1634C22.1591 80.4585 22.0139 79.7537 21.6615 79.1317C21.4957 78.8207 21.2676 78.5512 20.9981 78.3025L20.8944 78.2195L20.7908 78.1366C20.7079 78.0744 20.6664 78.0329 20.5835 77.9708L20.1066 77.639C19.464 77.2037 18.8213 76.7476 18.1786 76.3122C15.6079 74.4464 13.0372 72.6428 10.5287 70.7562Z" fill="#923D00"/>
            <path d="M15.7117 62.9404C18.4689 64.5575 21.164 66.2367 23.8591 67.9574C24.5225 68.3928 25.2066 68.8074 25.87 69.2428L25.9944 69.3257L26.1188 69.4294C26.2017 69.4916 26.3054 69.5537 26.3883 69.6159C26.5542 69.7611 26.72 69.9062 26.8652 70.072C27.0103 70.2171 27.1347 70.4037 27.2798 70.5903C27.3834 70.7769 27.5078 70.9635 27.5908 71.1501C27.7773 71.544 27.9017 71.9586 27.9639 72.3939C28.0261 72.8293 28.0261 73.2647 27.9639 73.7C27.9017 74.1354 27.7773 74.55 27.5908 74.9439C27.5078 75.1512 27.3834 75.3378 27.2798 75.5244L26.9481 76.0219L26.6164 76.5195C26.492 76.6853 26.3676 76.8719 26.2018 77.0378C25.9115 77.3695 25.5591 77.639 25.1859 77.867C24.8127 78.0951 24.3981 78.2609 23.9835 78.3646C23.5689 78.4682 23.1128 78.5304 22.6774 78.5097C22.4494 78.5097 22.2421 78.4682 22.0347 78.4268C21.8274 78.3646 21.5994 78.3231 21.4128 78.2609C21.2055 78.1987 21.0189 78.0951 20.8116 78.0122C20.7079 77.9707 20.625 77.9085 20.5213 77.8463L20.397 77.7426L20.2726 77.6597C19.6092 77.2036 18.9665 76.7683 18.3031 76.3122C15.6909 74.5085 13.0788 72.6635 10.5288 70.7562C13.2861 72.3732 15.9812 74.0525 18.6762 75.7732C19.3397 76.2085 20.0238 76.6232 20.6872 77.0585L20.8116 77.1414L20.936 77.2036C21.0189 77.2451 21.0811 77.2866 21.164 77.328C21.3299 77.4109 21.4957 77.4731 21.6616 77.5353C21.8274 77.5975 22.014 77.6183 22.1799 77.6597C22.3664 77.6805 22.5323 77.7012 22.7189 77.7012C23.0713 77.7012 23.4445 77.6805 23.7762 77.5768C24.1286 77.4731 24.4603 77.3487 24.7713 77.1622C25.0823 76.9756 25.3518 76.7475 25.5798 76.478C25.7042 76.3536 25.8079 76.1878 25.9115 76.0427L26.2432 75.5451L26.5749 75.0476C26.6578 74.8817 26.7615 74.7366 26.8444 74.5707C27.0103 74.2598 27.1139 73.9073 27.1554 73.5549C27.2176 73.2025 27.2176 72.8293 27.1554 72.4769C27.1139 72.1244 27.0103 71.772 26.8652 71.4403C26.803 71.2745 26.6993 71.1293 26.6164 70.9635C26.5127 70.8184 26.4091 70.6732 26.2847 70.5281C26.181 70.383 26.0359 70.2586 25.9115 70.1342C25.8493 70.072 25.7664 70.0306 25.7042 69.9684L25.6005 69.8854L25.4762 69.8025C24.8127 69.3464 24.1701 68.9111 23.5067 68.455C20.8738 66.6721 18.2616 64.8477 15.7117 62.9404Z" fill="#923D00"/>
            <path d="M21.7655 53.7979C24.5642 55.4356 27.3008 57.1563 30.0373 58.8978L31.0532 59.5405C31.219 59.6441 31.4056 59.7892 31.5714 59.9136C31.7373 60.0587 31.9031 60.2039 32.0483 60.349C32.6495 60.9709 33.1056 61.738 33.3751 62.5672C33.6238 63.3965 33.686 64.2879 33.5409 65.1587C33.4995 65.366 33.458 65.594 33.3958 65.8013C33.3129 66.0086 33.2714 66.216 33.1678 66.4233L33.0226 66.7135C32.9812 66.8172 32.919 66.9001 32.8568 67.0038C32.7946 67.0867 32.7531 67.1903 32.6909 67.2733L32.5251 67.522L32.3592 67.7708C32.297 67.8537 32.2348 67.9367 32.1726 68.0403C32.1105 68.1233 32.0483 68.2269 31.9653 68.3098L31.7373 68.5586C31.5922 68.7245 31.4263 68.8489 31.2605 69.0147C31.0946 69.1598 30.908 69.2842 30.7422 69.4086C29.9959 69.8854 29.1666 70.1757 28.2959 70.2586C27.4252 70.3415 26.5544 70.2171 25.7459 69.9062C25.5386 69.8232 25.352 69.7196 25.1654 69.6366C24.9789 69.533 24.7923 69.4086 24.6264 69.3049L23.6313 68.6208C20.957 66.7757 18.3241 64.9099 15.7119 62.9819C18.5107 64.6196 21.2472 66.3404 23.9837 68.0818L24.9996 68.7245C25.1654 68.8281 25.3313 68.911 25.4971 69.0147C25.663 69.0976 25.8288 69.1806 26.0154 69.2427C26.7203 69.4915 27.4874 69.5952 28.2337 69.4915C28.98 69.3879 29.7056 69.1391 30.3276 68.7452C30.4727 68.6415 30.6385 68.5379 30.7836 68.4135C30.908 68.2891 31.0739 68.1647 31.1775 68.0196L31.3641 67.8123C31.4263 67.7501 31.4678 67.6672 31.53 67.5842C31.5922 67.5013 31.6336 67.4391 31.6958 67.3562L31.8617 67.1074L32.0275 66.8586C32.0897 66.7757 32.1312 66.6928 32.1726 66.6099C32.2141 66.5269 32.2763 66.444 32.3178 66.3611L32.4422 66.1123C32.5251 65.9465 32.5665 65.7599 32.6495 65.594C32.7117 65.4074 32.7531 65.2416 32.7739 65.055C32.8982 64.3294 32.8568 63.5623 32.6495 62.8367C32.4422 62.1111 32.069 61.4477 31.5507 60.888C31.4263 60.7429 31.2812 60.6185 31.1361 60.4941C30.991 60.3904 30.8458 60.266 30.68 60.1417L29.6849 59.4575C27.0313 57.5917 24.3776 55.7259 21.7655 53.7979Z" fill="#923D00"/>
        </g>
    </g>
    <path d="M37.8511 51.4408C41.8952 51.4408 45.1735 46.5799 45.1735 40.5837C45.1735 34.5875 41.8952 29.7267 37.8511 29.7267C33.8071 29.7267 30.5288 34.5875 30.5288 40.5837C30.5288 46.5799 33.8071 51.4408 37.8511 51.4408Z" fill="url(#paint16_radial_1954_107668)"/>
    <path d="M37.8511 51.646C39.962 51.646 41.8489 50.3773 43.199 48.3756C44.5498 46.3726 45.3787 43.6172 45.3787 40.5837C45.3787 37.5503 44.5498 34.7948 43.199 32.7919C41.8489 30.7901 39.962 29.5214 37.8511 29.5214C35.7403 29.5214 33.8533 30.7901 32.5033 32.7919C31.1524 34.7948 30.3236 37.5503 30.3236 40.5837C30.3236 43.6172 31.1524 46.3726 32.5033 48.3756C33.8533 50.3773 35.7403 51.646 37.8511 51.646Z" stroke="url(#paint17_linear_1954_107668)" stroke-width="0.410482" stroke-miterlimit="10"/>
    <path style="mix-blend-mode:screen" d="M35.3008 53.6529C45.0318 53.6529 52.9204 45.7644 52.9204 36.0333C52.9204 26.3023 45.0318 18.4137 35.3008 18.4137C25.5697 18.4137 17.6812 26.3023 17.6812 36.0333C17.6812 45.7644 25.5697 53.6529 35.3008 53.6529Z" fill="url(#paint18_linear_1954_107668)"/>
    <path d="M30.7879 54.4822L31.074 53.9888C34.8822 54.8821 38.8756 54.5435 42.479 53.022C46.0824 51.5004 49.1099 48.8744 51.1254 45.5221C56.3435 36.8149 53.4805 25.4002 44.765 20.1945C40.9564 17.9257 36.4583 17.104 32.0935 17.8797C27.7288 18.6554 23.7892 20.9767 20.9956 24.4189C18.202 27.861 16.7411 32.194 16.8802 36.625C17.0193 41.0559 18.7491 45.2887 21.7532 48.5489L21.4339 49.0837C21.2431 49.4142 21.1914 49.8069 21.2902 50.1755C21.3889 50.544 21.63 50.8583 21.9605 51.0491L28.8184 55.0088C28.9821 55.1042 29.1631 55.1662 29.3509 55.1914C29.5388 55.2165 29.7297 55.2043 29.9127 55.1553C30.0958 55.1064 30.2674 55.0217 30.4176 54.9062C30.5678 54.7907 30.6936 54.6466 30.7879 54.4822V54.4822ZM20.7601 27.6371C22.5176 24.5926 25.1861 22.1764 28.3897 20.7291C31.5933 19.2818 35.1703 18.8763 38.6165 19.5699C42.0627 20.2634 45.2044 22.021 47.5987 24.5949C49.993 27.1688 51.5192 30.4292 51.9621 33.9165C52.405 37.4038 51.7423 40.9422 50.0674 44.0329C48.3926 47.1236 45.79 49.6107 42.6265 51.1437C39.4631 52.6768 35.8983 53.1783 32.4347 52.5778C28.971 51.9772 25.7832 50.3048 23.3205 47.7963C20.7516 45.1763 19.1108 41.7875 18.6485 38.1475C18.1862 34.5075 18.9278 30.8161 20.7601 27.6371V27.6371Z" fill="black"/>
    <defs>
        <filter id="filter0_f_1954_107668" x="-1.36003" y="42.8741" width="110.814" height="63.4577" filterUnits="userSpaceOnUse" color-interpolation-filters="sRGB">
            <feFlood flood-opacity="0" result="BackgroundImageFix"/>
            <feBlend mode="normal" in="SourceGraphic" in2="BackgroundImageFix" result="shape"/>
            <feGaussianBlur stdDeviation="2.56551" result="effect1_foregroundBlur_1954_107668"/>
        </filter>
        <filter id="filter1_f_1954_107668" x="-4.43864" y="39.7955" width="116.971" height="69.615" filterUnits="userSpaceOnUse" color-interpolation-filters="sRGB">
            <feFlood flood-opacity="0" result="BackgroundImageFix"/>
            <feBlend mode="normal" in="SourceGraphic" in2="BackgroundImageFix" result="shape"/>
            <feGaussianBlur stdDeviation="4.10482" result="effect1_foregroundBlur_1954_107668"/>
        </filter>
        <filter id="filter2_f_1954_107668" x="41.9521" y="58.222" width="24.3511" height="32.03" filterUnits="userSpaceOnUse" color-interpolation-filters="sRGB">
            <feFlood flood-opacity="0" result="BackgroundImageFix"/>
            <feBlend mode="normal" in="SourceGraphic" in2="BackgroundImageFix" result="shape"/>
            <feGaussianBlur stdDeviation="0.615723" result="effect1_foregroundBlur_1954_107668"/>
        </filter>
        <filter id="filter3_f_1954_107668" x="-6.1582" y="47.0204" width="50.77" height="51.0848" filterUnits="userSpaceOnUse" color-interpolation-filters="sRGB">
            <feFlood flood-opacity="0" result="BackgroundImageFix"/>
            <feBlend mode="normal" in="SourceGraphic" in2="BackgroundImageFix" result="shape"/>
            <feGaussianBlur stdDeviation="3.07861" result="effect1_foregroundBlur_1954_107668"/>
        </filter>
        <filter id="filter4_f_1954_107668" x="-0.966309" y="49.7659" width="23.1138" height="34.5155" filterUnits="userSpaceOnUse" color-interpolation-filters="sRGB">
            <feFlood flood-opacity="0" result="BackgroundImageFix"/>
            <feBlend mode="normal" in="SourceGraphic" in2="BackgroundImageFix" result="shape"/>
            <feGaussianBlur stdDeviation="0.615723" result="effect1_foregroundBlur_1954_107668"/>
        </filter>
        <filter id="filter5_f_1954_107668" x="6.42399" y="56.5138" width="30.9338" height="37.4853" filterUnits="userSpaceOnUse" color-interpolation-filters="sRGB">
            <feFlood flood-opacity="0" result="BackgroundImageFix"/>
            <feBlend mode="normal" in="SourceGraphic" in2="BackgroundImageFix" result="shape"/>
            <feGaussianBlur stdDeviation="2.05241" result="effect1_foregroundBlur_1954_107668"/>
        </filter>
        <filter id="filter6_f_1954_107668" x="-0.85319" y="49.5481" width="41.804" height="42.8361" filterUnits="userSpaceOnUse" color-interpolation-filters="sRGB">
            <feFlood flood-opacity="0" result="BackgroundImageFix"/>
            <feBlend mode="normal" in="SourceGraphic" in2="BackgroundImageFix" result="shape"/>
            <feGaussianBlur stdDeviation="1.0262" result="effect1_foregroundBlur_1954_107668"/>
        </filter>
        <radialGradient id="paint0_radial_1954_107668" cx="0" cy="0" r="1" gradientUnits="userSpaceOnUse" gradientTransform="translate(54.3157) rotate(90) scale(99.9254)">
            <stop stop-color="#FFDE43"/>
            <stop offset="1" stop-color="#FFBC00"/>
        </radialGradient>
        <radialGradient id="paint1_radial_1954_107668" cx="0" cy="0" r="1" gradientUnits="userSpaceOnUse" gradientTransform="translate(54.3157 13.3718) rotate(90) scale(86.5536)">
            <stop stop-color="white" stop-opacity="0.5"/>
            <stop offset="0.782278"/>
        </radialGradient>
        <radialGradient id="paint2_radial_1954_107668" cx="0" cy="0" r="1" gradientUnits="userSpaceOnUse" gradientTransform="translate(54.3157 13.3718) rotate(90) scale(86.5536)">
            <stop stop-color="white" stop-opacity="0.5"/>
            <stop offset="0.782278"/>
        </radialGradient>
        <radialGradient id="paint3_radial_1954_107668" cx="0" cy="0" r="1" gradientUnits="userSpaceOnUse" gradientTransform="translate(54.3157 -10.884) rotate(90) scale(110.809 149.854)">
            <stop offset="0.0922635" stop-color="white"/>
            <stop offset="0.670207" stop-color="white" stop-opacity="0"/>
        </radialGradient>
        <radialGradient id="paint4_radial_1954_107668" cx="0" cy="0" r="1" gradientUnits="userSpaceOnUse" gradientTransform="translate(54.1301 79.5574) scale(7.79611 17.7968)">
            <stop stop-color="#743C1C"/>
            <stop offset="1" stop-color="#401C02"/>
        </radialGradient>
        <linearGradient id="paint5_linear_1954_107668" x1="54.1288" y1="89.5876" x2="54.1288" y2="58.7712" gradientUnits="userSpaceOnUse">
            <stop offset="0.265625" stop-color="#FFDE43"/>
            <stop offset="1" stop-color="#F79D14"/>
        </linearGradient>
        <linearGradient id="paint6_linear_1954_107668" x1="43.7938" y1="66.212" x2="64.4585" y2="66.212" gradientUnits="userSpaceOnUse">
            <stop stop-color="#CCCCCC"/>
            <stop offset="0.05" stop-color="#D5D5D5"/>
            <stop offset="0.2" stop-color="#E9E9E9"/>
            <stop offset="0.35" stop-color="#F6F6F6"/>
            <stop offset="0.5" stop-color="#FAFAFA"/>
            <stop offset="0.65" stop-color="#F6F6F6"/>
            <stop offset="0.8" stop-color="#E9E9E9"/>
            <stop offset="0.95" stop-color="#D5D5D5"/>
            <stop offset="1" stop-color="#CCCCCC"/>
        </linearGradient>
        <linearGradient id="paint7_linear_1954_107668" x1="54.1298" y1="88.8195" x2="54.1298" y2="59.6546" gradientUnits="userSpaceOnUse">
            <stop stop-color="#401C02"/>
            <stop offset="1" stop-color="#401C02"/>
        </linearGradient>
        <linearGradient id="paint8_linear_1954_107668" x1="54.1298" y1="88.8195" x2="54.1298" y2="59.6546" gradientUnits="userSpaceOnUse">
            <stop stop-color="#401C02"/>
            <stop offset="1" stop-color="#401C02"/>
        </linearGradient>
        <radialGradient id="paint9_radial_1954_107668" cx="0" cy="0" r="1" gradientUnits="userSpaceOnUse" gradientTransform="translate(73.6781 38.202) scale(16.9287 3.88383)">
            <stop stop-color="#743C1C"/>
            <stop offset="1" stop-color="#401C02"/>
        </radialGradient>
        <linearGradient id="paint10_linear_1954_107668" x1="73.6965" y1="42.2999" x2="73.6965" y2="34.078" gradientUnits="userSpaceOnUse">
            <stop stop-color="#FFDE43"/>
            <stop offset="0.22" stop-color="#FED93F"/>
            <stop offset="0.51" stop-color="#FCC934"/>
            <stop offset="0.82" stop-color="#F9AF21"/>
            <stop offset="1" stop-color="#F79D14"/>
        </linearGradient>
        <radialGradient id="paint11_radial_1954_107668" cx="0" cy="0" r="1" gradientUnits="userSpaceOnUse" gradientTransform="translate(54.3157) rotate(90) scale(99.9254)">
            <stop stop-color="#FFDE43"/>
            <stop offset="1" stop-color="#FFBC00"/>
        </radialGradient>
        <radialGradient id="paint12_radial_1954_107668" cx="0" cy="0" r="1" gradientUnits="userSpaceOnUse" gradientTransform="translate(17.4208 70.2557) rotate(-56.4402) scale(18.1122)">
            <stop offset="0.0139674" stop-color="#FFDE43"/>
            <stop offset="0.3975" stop-color="#FFDC41"/>
            <stop offset="0.6038" stop-color="#FFD43B"/>
            <stop offset="0.7679" stop-color="#FFC631"/>
            <stop offset="0.9089" stop-color="#FFB323"/>
            <stop offset="1" stop-color="#FFA216"/>
        </radialGradient>
        <radialGradient id="paint13_radial_1954_107668" cx="0" cy="0" r="1" gradientUnits="userSpaceOnUse" gradientTransform="translate(17.4208 70.2557) rotate(-56.4402) scale(18.1122)">
            <stop offset="0.0139674" stop-color="#FFDE43"/>
            <stop offset="0.3975" stop-color="#FFDC41"/>
            <stop offset="0.6038" stop-color="#FFD43B"/>
            <stop offset="0.7679" stop-color="#FFC631"/>
            <stop offset="0.9089" stop-color="#FFB323"/>
            <stop offset="1" stop-color="#FFA216"/>
        </radialGradient>
        <radialGradient id="paint14_radial_1954_107668" cx="0" cy="0" r="1" gradientUnits="userSpaceOnUse" gradientTransform="translate(17.4208 70.2557) rotate(-56.4402) scale(18.1122)">
            <stop offset="0.0139674" stop-color="#FFDE43"/>
            <stop offset="0.3975" stop-color="#FFDC41"/>
            <stop offset="0.6038" stop-color="#FFD43B"/>
            <stop offset="0.7679" stop-color="#FFC631"/>
            <stop offset="0.9089" stop-color="#FFB323"/>
            <stop offset="1" stop-color="#FFA216"/>
        </radialGradient>
        <radialGradient id="paint15_radial_1954_107668" cx="0" cy="0" r="1" gradientUnits="userSpaceOnUse" gradientTransform="translate(17.4208 70.2557) rotate(-56.4402) scale(18.1122)">
            <stop offset="0.0139674" stop-color="#FFDE43"/>
            <stop offset="0.3975" stop-color="#FFDC41"/>
            <stop offset="0.6038" stop-color="#FFD43B"/>
            <stop offset="0.7679" stop-color="#FFC631"/>
            <stop offset="0.9089" stop-color="#FFB323"/>
            <stop offset="1" stop-color="#FFA216"/>
        </radialGradient>
        <radialGradient id="paint16_radial_1954_107668" cx="0" cy="0" r="1" gradientUnits="userSpaceOnUse" gradientTransform="translate(37.841 40.5765) scale(9.33419 10.8759)">
            <stop stop-color="#743C1C"/>
            <stop offset="1" stop-color="#401C02"/>
        </radialGradient>
        <linearGradient id="paint17_linear_1954_107668" x1="37.8511" y1="52.0517" x2="37.8511" y2="29.028" gradientUnits="userSpaceOnUse">
            <stop stop-color="#FFDE43"/>
            <stop offset="0.22" stop-color="#FED93F"/>
            <stop offset="0.51" stop-color="#FCC934"/>
            <stop offset="0.82" stop-color="#F9AF21"/>
            <stop offset="1" stop-color="#F79D14"/>
        </linearGradient>
        <linearGradient id="paint18_linear_1954_107668" x1="13.4758" y1="21.8879" x2="31.2217" y2="52.4812" gradientUnits="userSpaceOnUse">
            <stop offset="0.03" stop-color="white" stop-opacity="0"/>
            <stop offset="0.15" stop-color="white" stop-opacity="0.12"/>
            <stop offset="0.45" stop-color="white" stop-opacity="0.41"/>
            <stop offset="0.71" stop-color="white" stop-opacity="0.62"/>
            <stop offset="0.9" stop-color="white" stop-opacity="0.75"/>
            <stop offset="1" stop-color="white" stop-opacity="0.8"/>
        </linearGradient>
    </defs>
</svg>
