<?xml version="1.0" encoding="utf-8"?>
<!-- Generator: Adobe Illustrator 15.0.0, SVG Export Plug-In . SVG Version: 6.00 Build 0)  -->
<!DOCTYPE svg PUBLIC "-//W3C//DTD SVG 1.1//EN" "http://www.w3.org/Graphics/SVG/1.1/DTD/svg11.dtd">
<svg version="1.1" id="Layer_1" xmlns="http://www.w3.org/2000/svg"  x="0px" y="0px"
	 width="1792px" height="1792px" viewBox="0 0 1792 1792" enable-background="new 0 0 1792 1792" xml:space="preserve">
<path fill="#FFFFFF" d="M768,384V256H640v128H768z M896,512V384H768v128H896z M768,640V512H640v128H768z M896,768V640H768v128H896z
	 M1596,380c18.667,18.667,34.667,44,48,76s20,61.333,20,88v1152c0,26.667-9.333,49.333-28,68s-41.333,28-68,28H224
	c-26.667,0-49.333-9.333-68-28s-28-41.333-28-68V96c0-26.667,9.333-49.333,28-68s41.333-28,68-28h896c26.667,0,56,6.667,88,20
	s57.333,29.333,76,48L1596,380z M1152,136v376h376c-6.667-19.333-14-33-22-41l-313-313C1185,150,1171.333,142.667,1152,136z
	 M1536,1664V640h-416c-26.667,0-49.333-9.333-68-28s-28-41.333-28-68V128H896v128H768V128H256v1536H1536z M909,943l107,349
	c5.333,18,8,35.333,8,52c0,55.333-24.167,101.167-72.5,137.5S842,1536,768,1536s-135.167-18.167-183.5-54.5S512,1399.333,512,1344
	c0-16.667,2.667-34,8-52c14-42,54-174,120-396V768h128v128h79c14.667,0,27.667,4.333,39,13S905,929,909,943z M768,1408
	c35.333,0,65.5-6.333,90.5-19s37.5-27.667,37.5-45s-12.5-32.333-37.5-45s-55.167-19-90.5-19s-65.5,6.333-90.5,19
	s-37.5,27.667-37.5,45s12.5,32.333,37.5,45S732.667,1408,768,1408z"/>
</svg>
