<?xml version="1.0" encoding="utf-8"?>
<!-- Generator: Adobe Illustrator 15.0.0, SVG Export Plug-In . SVG Version: 6.00 Build 0)  -->
<!DOCTYPE svg PUBLIC "-//W3C//DTD SVG 1.1//EN" "http://www.w3.org/Graphics/SVG/1.1/DTD/svg11.dtd">
<svg version="1.1" id="Layer_1" xmlns="http://www.w3.org/2000/svg"  x="0px" y="0px"
	 width="32px" height="32px" viewBox="0 0 32 32" enable-background="new 0 0 32 32" xml:space="preserve">
<path fill="#FFFFFF" d="M10.786,22.646l-0.737,0.738c-0.1,0.102-0.211,0.149-0.339,0.149c-0.129,0-0.241-0.048-0.341-0.149
	L2.494,16.51c-0.099-0.097-0.148-0.211-0.148-0.339c0-0.127,0.049-0.242,0.148-0.339l6.875-6.876c0.1-0.098,0.212-0.147,0.341-0.147
	c0.128,0,0.24,0.05,0.339,0.147l0.737,0.738c0.097,0.099,0.147,0.211,0.147,0.341c0,0.127-0.05,0.239-0.147,0.339l-5.798,5.798
	l5.798,5.798c0.097,0.098,0.147,0.212,0.147,0.339S10.883,22.549,10.786,22.646z M19.504,6.905l-5.502,19.048
	c-0.039,0.127-0.115,0.225-0.229,0.287c-0.112,0.066-0.228,0.075-0.346,0.039l-0.915-0.254c-0.128-0.037-0.224-0.112-0.288-0.227
	c-0.064-0.115-0.077-0.233-0.037-0.36l5.503-19.05c0.04-0.127,0.117-0.224,0.227-0.288c0.115-0.063,0.232-0.076,0.348-0.036
	l0.917,0.25c0.128,0.04,0.223,0.115,0.288,0.228C19.531,6.657,19.546,6.778,19.504,6.905z M29.2,16.51l-6.879,6.875
	c-0.097,0.102-0.212,0.149-0.339,0.149s-0.241-0.048-0.338-0.149l-0.738-0.738c-0.097-0.098-0.146-0.212-0.146-0.339
	s0.049-0.241,0.146-0.339l5.798-5.798l-5.798-5.798c-0.097-0.1-0.146-0.212-0.146-0.339c0-0.129,0.049-0.242,0.146-0.341
	l0.738-0.738c0.097-0.098,0.211-0.147,0.338-0.147s0.242,0.05,0.339,0.147l6.879,6.876c0.098,0.097,0.146,0.212,0.146,0.339
	C29.346,16.298,29.298,16.413,29.2,16.51z"/>
</svg>
