<?xml version="1.0" encoding="utf-8"?>
<!-- Generator: Adobe Illustrator 15.0.0, SVG Export Plug-In . SVG Version: 6.00 Build 0)  -->
<!DOCTYPE svg PUBLIC "-//W3C//DTD SVG 1.1//EN" "http://www.w3.org/Graphics/SVG/1.1/DTD/svg11.dtd">
<svg version="1.1" id="Layer_1" xmlns="http://www.w3.org/2000/svg"  x="0px" y="0px"
	 width="32px" height="32px" viewBox="0 0 32 32" enable-background="new 0 0 32 32" xml:space="preserve">
<g>
	<path fill="#FFFFFF" d="M29.159,6.189H2.839C2.101,6.189,1.5,5.589,1.5,4.849C1.5,4.11,2.101,3.51,2.839,3.51h26.32
		c0.74,0,1.341,0.6,1.341,1.339C30.5,5.589,29.899,6.189,29.159,6.189z"/>
	<path fill="#FFFFFF" d="M29.159,13.592H2.839c-0.739,0-1.339-0.6-1.339-1.339c0-0.74,0.601-1.341,1.339-1.341h26.32
		c0.74,0,1.341,0.601,1.341,1.341C30.5,12.992,29.899,13.592,29.159,13.592z"/>
	<path fill="#FFFFFF" d="M29.159,20.995H2.839c-0.739,0-1.339-0.601-1.339-1.34s0.601-1.338,1.339-1.338h26.32
		c0.74,0,1.341,0.599,1.341,1.338S29.899,20.995,29.159,20.995z"/>
	<path fill="#FFFFFF" d="M18.685,28.403H2.839c-0.739,0-1.339-0.598-1.339-1.338s0.601-1.341,1.339-1.341h15.845
		c0.74,0,1.34,0.601,1.34,1.341S19.425,28.403,18.685,28.403z"/>
</g>
</svg>
