<?xml version="1.0" encoding="utf-8"?>
<!-- Generator: Adobe Illustrator 15.0.0, SVG Export Plug-In . SVG Version: 6.00 Build 0)  -->
<!DOCTYPE svg PUBLIC "-//W3C//DTD SVG 1.1//EN" "http://www.w3.org/Graphics/SVG/1.1/DTD/svg11.dtd">
<svg version="1.1" id="file" xmlns="http://www.w3.org/2000/svg"  x="0px" y="0px"
	 width="96px" height="96px" viewBox="0 0 96 96" enable-background="new 0 0 96 96" xml:space="preserve">
<path fill="#FFFFFF" d="M60,0H20C13.373,0,8,5.373,8,12v72c0,6.627,5.373,12,12,12h55.875C82.502,96,88,90.627,88,84V28
	C84,24,66,6,60,0z M60,11.178L76.709,28H60V11.178z M75.875,88H20c-2.206,0-4-1.794-4-4V12c0-2.206,1.794-4,4-4h32v20v8h8h20v48
	C80,86.168,78.111,88,75.875,88z"/>
</svg>
