<?xml version="1.0" encoding="utf-8"?>
<!-- Generator: Adobe Illustrator 15.0.0, SVG Export Plug-In . SVG Version: 6.00 Build 0)  -->
<!DOCTYPE svg PUBLIC "-//W3C//DTD SVG 1.1//EN" "http://www.w3.org/Graphics/SVG/1.1/DTD/svg11.dtd">
<svg version="1.1" id="Layer_1" xmlns="http://www.w3.org/2000/svg"  x="0px" y="0px"
	 width="32px" height="32px" viewBox="0 0 32 32" enable-background="new 0 0 32 32" xml:space="preserve">
<g>
	<path fill="#FFFFFF" d="M23.251,14.637c1.712,0,3.105-1.389,3.105-3.105c0-1.716-1.394-3.109-3.105-3.109
		c-1.716,0-3.107,1.393-3.107,3.109C20.144,13.248,21.535,14.637,23.251,14.637z"/>
	<path fill="#FFFFFF" d="M28.688,4.282H3.312C2.302,4.282,1.5,5.104,1.5,6.113v21.194c0,1.008,0.802,1.831,1.812,1.831h25.376
		c1.007,0,1.812-0.823,1.812-1.831V6.113C30.5,5.104,29.695,4.282,28.688,4.282z M22.015,17.078
		c-0.194-0.226-0.493-0.402-0.829-0.402c-0.328,0-0.562,0.156-0.829,0.37l-1.211,1.023c-0.252,0.182-0.452,0.303-0.744,0.303
		c-0.278,0-0.529-0.102-0.712-0.263c-0.064-0.059-0.182-0.169-0.279-0.268l-3.483-3.768c-0.256-0.297-0.646-0.485-1.079-0.485
		c-0.434,0-0.835,0.213-1.089,0.505l-8.187,9.88V7.11c0.065-0.441,0.409-0.758,0.847-0.758h23.154c0.448,0,0.81,0.329,0.837,0.776
		l0.018,16.856L22.015,17.078z"/>
</g>
</svg>
