<?xml version="1.0" encoding="utf-8"?>
<!-- Generator: Adobe Illustrator 15.0.0, SVG Export Plug-In . SVG Version: 6.00 Build 0)  -->
<!DOCTYPE svg PUBLIC "-//W3C//DTD SVG 1.1//EN" "http://www.w3.org/Graphics/SVG/1.1/DTD/svg11.dtd">
<svg version="1.1" id="Layer_1" xmlns="http://www.w3.org/2000/svg"  x="0px" y="0px"
	 width="32px" height="32px" viewBox="0 0 32 32" enable-background="new 0 0 32 32" xml:space="preserve">
<g>
	<path fill="#FFFFFF" d="M16.041,12.217H16l0,0C16.016,12.217,16.024,12.217,16.041,12.217z"/>
	<path fill="#FFFFFF" d="M25.082,8.342h-3.915c0,0,2.1,1.373,2.551,3.875h1.323h0.041c1.421,0,2.543,1.123,2.543,2.543v2.583
		c0,1.421-1.122,2.624-2.543,2.624h-9.042c-1.421,0-2.624-1.203-2.624-2.624V14.8H9.542v2.543c0,0.929,0.202,1.816,0.557,2.624
		c1.017,2.276,3.302,3.875,5.942,3.875h9.042c3.568,0,6.418-2.931,6.418-6.499V14.76C31.5,11.192,28.65,8.342,25.082,8.342z"/>
	<path fill="#FFFFFF" d="M21.942,12.217c-0.977-2.284-3.237-3.875-5.902-3.875H7c-3.569,0-6.5,2.85-6.5,6.418v2.583
		c0,3.568,2.931,6.499,6.5,6.499h3.833c0,0-2.082-1.373-2.59-3.875H7c-1.421,0-2.624-1.203-2.624-2.624V14.76
		c0-1.421,1.203-2.543,2.624-2.543h9h0.041c1.42,0,2.543,1.123,2.543,2.543v2.583c0,0.016,0,0.024,0,0.04h3.875
		c0-0.016,0-0.024,0-0.04V14.76C22.459,13.856,22.273,12.992,21.942,12.217z"/>
</g>
</svg>
