<?xml version="1.0" encoding="utf-8"?>
<!-- Generator: Adobe Illustrator 15.0.0, SVG Export Plug-In . SVG Version: 6.00 Build 0)  -->
<!DOCTYPE svg PUBLIC "-//W3C//DTD SVG 1.1//EN" "http://www.w3.org/Graphics/SVG/1.1/DTD/svg11.dtd">
<svg version="1.1" id="Layer_1" xmlns="http://www.w3.org/2000/svg"  x="0px" y="0px"
	 width="32px" height="32px" viewBox="0 0 32 32" enable-background="new 0 0 32 32" xml:space="preserve">
<path fill="#FFFFFF" d="M5.288,28c-0.71,0-1.07-0.371-1.25-0.711c-0.224-0.422-0.272-0.982-0.137-1.58
	c0.152-0.678,0.527-1.293,1.177-1.93c0.801-0.781,1.974-1.564,3.305-2.207c0.656-0.318,1.432-0.646,2.272-0.959
	c0.978-1.523,2.363-3.907,3.36-6.527c0.108-0.289,0.213-0.574,0.312-0.863c-0.307-0.71-0.498-1.32-0.645-1.847
	c-0.276-0.976-0.451-1.854-0.524-2.606c-0.071-0.74-0.058-1.475,0.039-2.184c0.095-0.714,0.259-1.224,0.51-1.601
	c0.33-0.476,0.761-0.708,1.067-0.82c0.239-0.087,0.421-0.11,0.528-0.123l0.07-0.011c0.133-0.024,0.411-0.074,0.766,0.033
	c0.21,0.064,0.414,0.174,0.632,0.305l0.005-0.013c1.052,0.496,0.954,1.39,0.826,2.52c-0.018,0.143-0.035,0.299-0.053,0.471
	c-0.143,1.333-0.546,3.496-1.259,5.761c0.049,0.098,0.101,0.199,0.154,0.3c0.535,1.006,1.31,2.164,2.244,3.351
	c0.428,0.539,0.918,1.117,1.428,1.693c0.822-0.053,1.641-0.047,2.426,0.014c0.852,0.07,1.703,0.207,2.465,0.396
	c0.877,0.211,1.512,0.461,2.055,0.807c0.699,0.434,1.238,1.02,1.514,1.646c0.324,0.713,0.338,1.533,0.031,2.178
	c-0.188,0.404-0.604,0.941-1.51,1.238c-0.65,0.207-1.322,0.209-2,0.01c-0.641-0.193-1.354-0.572-2.188-1.16
	c-0.809-0.574-1.576-1.234-2.486-2.139c-0.35-0.348-0.699-0.713-1.051-1.084c-0.568,0.064-1.203,0.164-2.003,0.309
	c-0.944,0.172-2.109,0.402-3.589,0.838c-0.655,0.191-1.305,0.398-1.923,0.619c-0.078,0.115-0.151,0.225-0.219,0.328
	c-1.272,1.885-2.513,3.361-3.591,4.279c-0.831,0.705-1.601,1.104-2.358,1.232C5.543,27.988,5.411,28,5.288,28z M8.569,23.533
	c-1.186,0.643-1.881,1.236-2.211,1.559c-0.472,0.461-0.606,0.764-0.662,0.982c0.345-0.125,0.731-0.369,1.166-0.736
	C7.27,24.99,7.843,24.428,8.569,23.533z M21.83,20.262c0.781,0.77,1.445,1.338,2.137,1.826c0.822,0.58,1.354,0.811,1.65,0.9
	c0.324,0.096,0.619,0.098,0.92,0.004c0.117-0.043,0.346-0.135,0.412-0.279c0.061-0.131,0.074-0.387-0.043-0.645
	c-0.137-0.299-0.432-0.609-0.818-0.852c-0.373-0.234-0.84-0.414-1.518-0.576c-0.674-0.164-1.422-0.285-2.176-0.352
	C22.209,20.277,22.02,20.264,21.83,20.262z M15.473,15.382c-0.655,1.602-1.424,3.094-2.141,4.342
	c1.533-0.439,2.731-0.684,3.707-0.855c0.316-0.061,0.607-0.111,0.883-0.154c-0.236-0.281-0.459-0.553-0.671-0.822
	C16.576,17.035,15.973,16.183,15.473,15.382z M15.658,5.842l-0.022,0.003c-0.037,0.005-0.073,0.011-0.11,0.015
	c-0.065,0.009-0.082,0.01-0.122,0.025c-0.037,0.012-0.128,0.053-0.181,0.129c-0.033,0.05-0.136,0.25-0.21,0.818
	c-0.078,0.563-0.088,1.172-0.033,1.763c0.042,0.428,0.124,0.911,0.246,1.441c0.261-1.139,0.423-2.148,0.502-2.883
	c0.018-0.177,0.037-0.337,0.054-0.482c0.029-0.265,0.061-0.539,0.071-0.717C15.786,5.915,15.712,5.871,15.658,5.842z M15.986,6.002
	c0.01,0.008,0.02,0.016,0.029,0.022l0.121-0.267L15.986,6.002z"/>
</svg>
