<?xml version="1.0" encoding="utf-8"?>
<!-- Generator: Adobe Illustrator 15.0.0, SVG Export Plug-In . SVG Version: 6.00 Build 0)  -->
<!DOCTYPE svg PUBLIC "-//W3C//DTD SVG 1.1//EN" "http://www.w3.org/Graphics/SVG/1.1/DTD/svg11.dtd">
<svg version="1.1" id="Layer_1" xmlns="http://www.w3.org/2000/svg"  x="0px" y="0px"
	 width="32px" height="32px" viewBox="0 0 32 32" enable-background="new 0 0 32 32" xml:space="preserve">
<g>
	<g>
		<rect x="1.479" y="4.082" fill="#FFFFFF" width="29.043" height="16.338"/>
		<path fill="#FFFFFF" d="M30.521,21.898H1.479C0.662,21.898,0,21.236,0,20.42V4.082c0-0.816,0.662-1.479,1.479-1.479h29.043
			C31.338,2.603,32,3.265,32,4.082V20.42C32,21.236,31.338,21.898,30.521,21.898z M2.957,18.941h26.086V5.56H2.957V18.941z"/>
	</g>
	<path fill="#FFFFFF" d="M19.747,30.074c-0.56,0-1.097-0.32-1.345-0.863l-2.513-5.484l-3.019,5.572
		c-0.389,0.719-1.286,0.984-2.004,0.596s-0.985-1.285-0.596-2.004l4.429-8.176c0.267-0.492,0.785-0.795,1.349-0.772
		c0.56,0.019,1.062,0.353,1.294,0.862l3.746,8.174c0.34,0.742,0.015,1.619-0.729,1.961C20.162,30.031,19.953,30.074,19.747,30.074z"
		/>
</g>
</svg>
