<?xml version="1.0" encoding="utf-8"?>
<!-- Generator: Adobe Illustrator 15.0.0, SVG Export Plug-In . SVG Version: 6.00 Build 0)  -->
<!DOCTYPE svg PUBLIC "-//W3C//DTD SVG 1.1//EN" "http://www.w3.org/Graphics/SVG/1.1/DTD/svg11.dtd">
<svg version="1.1" id="Layer_1" xmlns="http://www.w3.org/2000/svg"  x="0px" y="0px"
	 width="32px" height="32px" viewBox="0 0 32 32" enable-background="new 0 0 32 32" xml:space="preserve">
<g>
	<path fill="#FFFFFF" d="M28.705,28.018H3.293C2.58,28.018,2,27.44,2,26.726V5.274c0-0.713,0.58-1.292,1.293-1.292h25.412
		C29.42,3.982,30,4.562,30,5.274v21.451C30,27.44,29.42,28.018,28.705,28.018z M4.587,25.431h22.827V6.569H4.587V25.431z"/>
	<path fill="#FFFFFF" d="M28.705,20.864H3.293C2.58,20.864,2,20.284,2,19.57c0-0.713,0.58-1.291,1.293-1.291h25.412
		c0.715,0,1.295,0.578,1.295,1.291C30,20.284,29.42,20.864,28.705,20.864z"/>
	<path fill="#FFFFFF" d="M28.705,13.723H3.293C2.58,13.723,2,13.143,2,12.428s0.58-1.293,1.293-1.293h25.412
		c0.715,0,1.295,0.578,1.295,1.293S29.42,13.723,28.705,13.723z"/>
	<path fill="#FFFFFF" d="M16,28.018c-0.715,0-1.293-0.577-1.293-1.292V5.274c0-0.713,0.578-1.292,1.293-1.292
		s1.295,0.58,1.295,1.292v21.451C17.295,27.44,16.715,28.018,16,28.018z"/>
</g>
</svg>
