<?xml version="1.0" encoding="utf-8"?>
<!-- Generator: Adobe Illustrator 15.0.0, SVG Export Plug-In . SVG Version: 6.00 Build 0)  -->
<!DOCTYPE svg PUBLIC "-//W3C//DTD SVG 1.1//EN" "http://www.w3.org/Graphics/SVG/1.1/DTD/svg11.dtd">
<svg version="1.1" id="Layer_1" xmlns="http://www.w3.org/2000/svg"  x="0px" y="0px"
	 width="32px" height="32px" viewBox="0 0 32 32" enable-background="new 0 0 32 32" xml:space="preserve">
<g>
	<g>
		<path fill="#FFFFFF" d="M20.591,29.731l-1.004-1.006c2.104-2.104,3.261-4.897,3.261-7.875c0-2.976-1.157-5.77-3.261-7.873
			c-2.104-2.103-4.899-3.26-7.874-3.26c-2.977,0-5.771,1.158-7.874,3.26l-1.005-1.005c2.369-2.368,5.524-3.676,8.879-3.676
			c3.353,0,6.509,1.309,8.877,3.676c2.369,2.369,3.678,5.524,3.678,8.878C24.269,24.207,22.96,27.359,20.591,29.731z"/>
	</g>
	<g>
		<polygon fill="#FFFFFF" points="2,11.376 2,13.935 4.559,13.935 4.559,11.376 		"/>
	</g>
	<g>
		<polygon fill="#FFFFFF" points="18.819,28.006 18.819,30.563 21.376,30.563 21.376,28.006 		"/>
	</g>
	<g>
		
			<rect x="19.675" y="-0.446" transform="matrix(-0.7068 0.7074 -0.7074 -0.7068 43.0427 6.8514)" fill="#FFFFFF" width="0.853" height="25.583"/>
	</g>
	<g>
		<polygon fill="#FFFFFF" points="18.819,11.044 18.819,13.603 21.376,13.603 21.376,11.044 		"/>
	</g>
	<g>
		<path fill="#FFFFFF" d="M21.615,13.84h-3.03v-3.032h3.03V13.84z M19.055,13.365h2.086v-2.083h-2.086V13.365z"/>
	</g>
	<g>
		<path fill="#FFFFFF" d="M11.238,4.175c0.475,0,0.854-0.38,0.854-0.854s-0.378-0.854-0.854-0.854c-0.473,0-0.852,0.38-0.852,0.854
			S10.765,4.175,11.238,4.175L11.238,4.175z"/>
	</g>
	<g>
		<path fill="#FFFFFF" d="M29.146,22.179c0.476,0,0.854-0.378,0.854-0.854c0-0.475-0.378-0.854-0.854-0.854
			c-0.474,0-0.854,0.379-0.854,0.854C28.293,21.801,28.673,22.179,29.146,22.179L29.146,22.179z"/>
	</g>
</g>
</svg>
