<?xml version="1.0" encoding="utf-8"?>
<!-- Generator: Adobe Illustrator 22.0.0, SVG Export Plug-In . SVG Version: 6.00 Build 0)  -->
<svg version="1.1" id="Layer_1" xmlns="http://www.w3.org/2000/svg" xmlns:xlink="http://www.w3.org/1999/xlink" x="0px" y="0px"
	 viewBox="0 0 500 500" style="enable-background:new 0 0 500 500;" xml:space="preserve">
<style type="text/css">
	.st0{fill-rule:evenodd;clip-rule:evenodd;}
</style>
<g>
	<path class="st0" d="M162.7,196.1v-73c0-4.1,2.2-7.8,5.7-9.8l75.1-43.1c3.5-2,7.7-2,11.2,0l76.2,43.1c3.6,2,5.8,5.8,5.8,9.9v73.1
		c0,8.7-9.4,14.2-16.9,9.9l-65-36.8c-3.5-2-7.8-2-11.2,0l-63.8,36.6C172.1,210.3,162.7,204.8,162.7,196.1z"/>
	<path class="st0" d="M232.4,374.2l-66.1,36.3c-3.5,1.9-7.8,1.9-11.2-0.2l-72.6-42.8c-3.5-2-5.6-5.8-5.6-9.8v-86.1
		c0-4.1,2.2-7.8,5.7-9.8l63.2-36.5c7.6-4.4,17,1.1,17,9.8l0,73.4c0,4.1,2.2,7.9,5.8,9.9l63.9,35.8
		C240.2,358.7,240.2,369.9,232.4,374.2z"/>
	<path class="st0" d="M353.7,225.5l63.2,36.5c3.5,2,5.7,5.8,5.7,9.8l0,86c0,4.1-2.2,7.8-5.7,9.8l-75.1,43c-3.5,2-7.8,2-11.3,0
		l-63.1-36.4c-7.6-4.4-7.6-15.3,0-19.7l63.6-36.5c3.5-2,5.7-5.8,5.7-9.8l0-72.9C336.7,226.6,346.2,221.1,353.7,225.5z"/>
</g>
</svg>
