<svg width="36" height="36" viewBox="0 0 36 36" fill="none" xmlns="http://www.w3.org/2000/svg">
    <rect width="36" height="36" rx="9" fill="#818C99" fill-opacity="0.12"/>
    <path d="M20.4808 8.0965C20.7777 8.16494 21.0405 8.27379 21.2989 8.4354C21.5573 8.597 21.7666 8.76664 22.3144 9.31438L25.6856 12.6856C26.2334 13.2334 26.403 13.4427 26.5646 13.7011C26.7262 13.9595 26.8351 14.2223 26.9035 14.5192C26.972 14.8162 27 15.0842 27 15.8588V23.1542C27 24.4915 26.8608 24.9764 26.5993 25.4653C26.3378 25.9542 25.9542 26.3378 25.4653 26.5993C24.9764 26.8608 24.4915 27 23.1542 27H13.8458C12.5085 27 12.0236 26.8608 11.5347 26.5993C11.0458 26.3378 10.6622 25.9542 10.4007 25.4653C10.1392 24.9764 10 24.4915 10 23.1542V11.8458C10 10.5085 10.1392 10.0236 10.4007 9.53473C10.6622 9.04584 11.0458 8.66216 11.5347 8.4007C12.0236 8.13924 12.5085 8 13.8458 8H19.1412C19.9158 8 20.1838 8.02805 20.4808 8.0965ZM19.8 9.92427C19.6343 9.92427 19.5 10.0586 19.5 10.2243V14C19.5 14.2762 19.7239 14.5 20 14.5H23.7757C23.8553 14.5 23.9316 14.4684 23.9879 14.4122C24.105 14.295 24.105 14.105 23.9879 13.9879L20.0121 10.0121C19.9559 9.95587 19.8796 9.92427 19.8 9.92427Z" fill="#99A2AD"/>
</svg>
