<svg width="36" height="36" viewBox="0 0 36 36" fill="none" xmlns="http://www.w3.org/2000/svg">
    <rect width="36" height="36" rx="9.75" fill="#F1C569"/>
    <path d="M18.438 28.2475C20.302 28.2426 21.8245 26.7569 21.875 24.8936L21.0235 17.5108C20.9248 16.551 20.1294 15.8133 19.1649 15.7871H17.7008C16.7572 15.8091 15.9694 16.5133 15.8421 17.4485L15.001 24.7171C14.9787 25.6439 15.3305 26.5406 15.9772 27.2049C16.6239 27.8692 17.5109 28.245 18.438 28.2475ZM16.6105 24.6548L16.6935 23.9071C16.7638 22.9986 17.5215 22.2972 18.4328 22.2972C19.3441 22.2972 20.1018 22.9986 20.1721 23.9071L20.2551 24.6548C20.3164 25.0785 20.1878 25.5076 19.9037 25.8278C19.6195 26.148 19.2086 26.3267 18.7807 26.3162H18.085C17.6475 26.3257 17.2288 26.1391 16.9434 25.8074C16.658 25.4758 16.5359 25.034 16.6105 24.6029V24.6548ZM17.3996 18.7153V18.2896C17.4512 17.7921 17.8704 17.4141 18.3705 17.4141C18.8706 17.4141 19.2899 17.7921 19.3414 18.2896L19.3933 18.7153C19.4273 18.9528 19.3543 19.1931 19.1939 19.3715C19.0335 19.5499 18.8023 19.648 18.5626 19.6395H18.1784C17.9477 19.6329 17.7308 19.5282 17.5821 19.3518C17.4334 19.1753 17.367 18.9438 17.3996 18.7153Z" fill="white"/>
    <path d="M18.0276 7.99976H16.5428C16.0983 7.99976 15.738 8.36005 15.738 8.80449C15.738 9.24893 16.0983 9.60923 16.5428 9.60923H18.0276C18.4721 9.60923 18.8324 9.24893 18.8324 8.80449C18.8324 8.36005 18.4721 7.99976 18.0276 7.99976Z" fill="white"/>
    <path d="M19.6788 9.60938H18.1939C17.7495 9.60938 17.3892 9.96967 17.3892 10.4141C17.3892 10.8586 17.7495 11.2188 18.1939 11.2188H19.6788C20.1232 11.2188 20.4835 10.8586 20.4835 10.4141C20.4835 9.96967 20.1232 9.60938 19.6788 9.60938Z" fill="white"/>
    <path d="M18.0276 11.2083H16.5428C16.0983 11.2083 15.738 11.5685 15.738 12.013C15.738 12.4574 16.0983 12.8177 16.5428 12.8177H18.0276C18.4721 12.8177 18.8324 12.4574 18.8324 12.013C18.8324 11.5685 18.4721 11.2083 18.0276 11.2083Z" fill="white"/>
    <path d="M19.6788 12.8174H18.1939C17.7495 12.8174 17.3892 13.1777 17.3892 13.6221C17.3892 14.0666 17.7495 14.4269 18.1939 14.4269H19.6788C20.1232 14.4269 20.4835 14.0666 20.4835 13.6221C20.4835 13.1777 20.1232 12.8174 19.6788 12.8174Z" fill="white"/>
</svg>
