<?xml version="1.0" encoding="utf-8"?>
<!-- Generator: Adobe Illustrator 15.0.0, SVG Export Plug-In . SVG Version: 6.00 Build 0)  -->
<!DOCTYPE svg PUBLIC "-//W3C//DTD SVG 1.1//EN" "http://www.w3.org/Graphics/SVG/1.1/DTD/svg11.dtd">
<svg version="1.1" id="Layer_1" xmlns="http://www.w3.org/2000/svg" xmlns:xlink="http://www.w3.org/1999/xlink" x="0px" y="0px"
	 width="564px" height="564px" viewBox="0 0 564 564" enable-background="new 0 0 564 564" xml:space="preserve">
<rect y="0.002" fill="#E9444B" width="564" height="563.996"/>
<path fill="#FFFFFF" d="M65.5,181.979v-48.341c0-25.481,20.656-46.138,46.138-46.138h343.725c25.481,0,46.138,20.656,46.138,46.138
	v48.341"/>
<path opacity="0.5" fill="#FFFFFF" d="M501.5,181.505v248.353c0,25.482-20.656,46.141-46.138,46.141H111.638
	c-25.481,0-46.138-20.658-46.138-46.141V181.505"/>
<g>
	<path fill="#FFFFFF" d="M262.648,399.565c0,1.648-0.13,3.037-0.391,4.164c-0.26,1.128-0.608,2.039-1.041,2.732
		c-0.435,0.695-0.933,1.193-1.497,1.497c-0.565,0.305-1.151,0.455-1.757,0.455h-87.969c-0.608,0-1.171-0.15-1.692-0.455
		c-0.521-0.304-1.021-0.802-1.497-1.497c-0.478-0.693-0.846-1.604-1.106-2.732c-0.26-1.127-0.391-2.516-0.391-4.164
		c0-1.562,0.13-2.906,0.391-4.034c0.26-1.127,0.585-2.06,0.976-2.798c0.39-0.736,0.866-1.302,1.431-1.692
		c0.563-0.39,1.191-0.585,1.887-0.585h35.135v-128.05l-32.533,19.39c-1.649,0.868-2.973,1.389-3.969,1.562
		c-0.998,0.175-1.801-0.021-2.407-0.586c-0.608-0.562-1.021-1.496-1.236-2.798c-0.218-1.301-0.325-2.948-0.325-4.944
		c0-1.475,0.065-2.733,0.195-3.774c0.13-1.041,0.326-1.907,0.586-2.603c0.26-0.693,0.628-1.301,1.106-1.821
		c0.476-0.521,1.106-1.041,1.887-1.562l38.779-24.855c0.346-0.26,0.781-0.476,1.302-0.651c0.521-0.173,1.171-0.346,1.952-0.521
		c0.781-0.173,1.692-0.281,2.733-0.325c1.041-0.043,2.342-0.065,3.904-0.065c2.082,0,3.816,0.087,5.206,0.26
		c1.387,0.175,2.472,0.413,3.253,0.715c0.781,0.305,1.301,0.696,1.562,1.171c0.26,0.478,0.391,0.976,0.391,1.497v147.96h30.451
		c0.693,0,1.344,0.195,1.952,0.585c0.606,0.391,1.106,0.956,1.497,1.692c0.39,0.738,0.693,1.671,0.911,2.798
		C262.538,396.659,262.648,398.004,262.648,399.565z"/>
	<path fill="#FFFFFF" d="M398.636,317.582c0,7.287-0.435,14.662-1.301,22.122c-0.868,7.463-2.343,14.641-4.425,21.537
		c-2.082,6.897-4.88,13.361-8.394,19.39c-3.514,6.031-7.938,11.301-13.273,15.812c-5.336,4.512-11.669,8.048-18.999,10.605
		c-7.332,2.558-15.856,3.839-25.571,3.839c-3.731,0-7.353-0.24-10.866-0.716c-3.514-0.478-6.681-1.063-9.499-1.757
		c-2.82-0.693-5.186-1.432-7.093-2.212c-1.909-0.781-3.298-1.562-4.164-2.343c-0.868-0.78-1.496-1.842-1.887-3.188
		c-0.391-1.344-0.586-3.144-0.586-5.4c0-1.907,0.065-3.426,0.195-4.555c0.13-1.126,0.325-1.994,0.586-2.603
		c0.26-0.605,0.628-1.019,1.106-1.236c0.476-0.215,1.061-0.325,1.756-0.325c0.954,0,2.298,0.325,4.034,0.977
		c1.734,0.65,3.925,1.366,6.572,2.146c2.646,0.781,5.746,1.497,9.304,2.147c3.557,0.65,7.548,0.976,11.973,0.976
		c8.414,0,15.636-1.626,21.667-4.88c6.028-3.253,10.951-7.612,14.77-13.078c3.816-5.465,6.68-11.797,8.589-18.999
		c1.907-7.2,2.948-14.79,3.123-22.773c-4.599,2.69-10.107,5.075-16.526,7.157c-6.421,2.082-13.794,3.124-22.122,3.124
		c-9.37,0-17.243-1.279-23.619-3.839c-6.377-2.559-11.496-6.052-15.355-10.477c-3.861-4.424-6.637-9.672-8.329-15.745
		c-1.691-6.072-2.537-12.709-2.537-19.91c0-7.461,1.084-14.553,3.253-21.277c2.168-6.722,5.551-12.643,10.15-17.763
		c4.598-5.118,10.453-9.194,17.568-12.232c7.112-3.036,15.615-4.554,25.506-4.554c7.026,0,13.251,0.89,18.674,2.667
		c5.421,1.779,10.128,4.339,14.119,7.678c3.989,3.341,7.373,7.375,10.15,12.103c2.775,4.729,5.01,10.085,6.701,16.071
		c1.692,5.985,2.906,12.472,3.644,19.454C398.266,302.509,398.636,309.861,398.636,317.582z M375.862,315.109
		c0-11.104-0.737-20.451-2.212-28.043c-1.476-7.591-3.644-13.729-6.507-18.414c-2.862-4.685-6.376-8.068-10.54-10.15
		s-8.979-3.123-14.445-3.123c-5.64,0-10.455,1.021-14.444,3.059c-3.991,2.039-7.267,4.771-9.825,8.198
		c-2.56,3.428-4.446,7.31-5.66,11.646c-1.216,4.339-1.822,8.807-1.822,13.403c0,5.12,0.541,9.805,1.627,14.055
		c1.084,4.252,2.841,7.853,5.271,10.801c2.428,2.95,5.596,5.228,9.499,6.832c3.904,1.606,8.719,2.407,14.445,2.407
		c6.506,0,12.795-0.976,18.869-2.928C366.188,320.9,371.438,318.32,375.862,315.109z"/>
</g>
</svg>
