<?xml version="1.0" encoding="utf-8"?>
<!-- Generator: Adobe Illustrator 15.0.0, SVG Export Plug-In . SVG Version: 6.00 Build 0)  -->
<!DOCTYPE svg PUBLIC "-//W3C//DTD SVG 1.1//EN" "http://www.w3.org/Graphics/SVG/1.1/DTD/svg11.dtd">
<svg version="1.1" id="Layer_1" xmlns="http://www.w3.org/2000/svg" xmlns:xlink="http://www.w3.org/1999/xlink" x="0px" y="0px"
	 width="564px" height="564px" viewBox="0 0 564 564" enable-background="new 0 0 564 564" xml:space="preserve">
<rect fill="#FFAE00" width="564" height="564"/>
<g>
	<path fill="#FFD738" d="M436.001,201.532v152.822c0,15.183-11.976,27.244-27.159,27.244H187.495
		c-15.183,0-27.493-12.062-27.493-27.244V201.532c0-1.438,0.106-2.852,0.32-4.218c-0.214-1.021-0.32-2.079-0.32-3.16v-37.85
		c0-8.59,6.965-15.905,15.554-15.905h48.031c9.611,0,18.497,5.276,23.321,13.593l15.076,20.007h146.86
		C424.025,173.999,436.001,186.348,436.001,201.532z"/>
	<path fill="#FFFFFF" d="M403.998,233.534v152.824c0,15.183-11.977,27.244-27.159,27.244H155.493
		c-15.183,0-27.494-12.062-27.494-27.244V233.534c0-1.438,0.107-2.852,0.32-4.218c-0.213-1.022-0.32-2.079-0.32-3.16v-37.85
		c0-8.59,6.965-15.905,15.555-15.905h48.031c9.611,0,18.497,5.277,23.321,13.593L229.982,206h146.86
		C392.022,206,403.998,218.35,403.998,233.534z"/>
</g>
</svg>
