<?xml version="1.0" encoding="utf-8"?>
<!-- Generator: Adobe Illustrator 15.0.0, SVG Export Plug-In . SVG Version: 6.00 Build 0)  -->
<!DOCTYPE svg PUBLIC "-//W3C//DTD SVG 1.1//EN" "http://www.w3.org/Graphics/SVG/1.1/DTD/svg11.dtd">
<svg version="1.1" id="Layer_1" xmlns="http://www.w3.org/2000/svg" xmlns:xlink="http://www.w3.org/1999/xlink" x="0px" y="0px"
	 width="564px" height="564px" viewBox="0 0 564 564" enable-background="new 0 0 564 564" xml:space="preserve">
<rect fill="#9AC31C" width="564" height="564"/>
<g>
	<g>
		<g>
			<g>
				<path fill="#FFFFFF" d="M314.97,270.367l8.994-96.387c0-49.054-39.902-88.959-88.957-88.959
					c-49.053,0-88.959,39.905-88.959,88.959l8.994,96.387 M171.466,163.497v35.898c0,23.46,12.808,43.939,31.77,54.945v2.242
					h-25.415c-7.181,0-4.746,2.485-10.068,6.52l-8.994-89.122c0-42.046,34.203-76.251,76.249-76.251
					c42.047,0,76.249,34.205,76.249,76.251l-8.994,89.122c-5.322-4.034-2.889-6.52-10.067-6.52h-25.416v-2.242
					c18.961-11.006,31.77-31.485,31.77-54.945v-35.898l-5.272-2.345l8.021-13.713l-16.352-7.085l-11.813-14.603l-11.813,14.603
					l-7.51,3.255l-18.803-8.35"/>
			</g>
		</g>
		<g>
			<g>
				<g>
					<path fill="#FFFFFF" d="M442.687,244.199c-20.937,6.984-38.404,21.838-48.825,40.986
						c-10.416-19.152-27.884-34.009-48.824-40.986l-8.365-2.782v40.742c0,17.506,4.137,35.037,11.966,50.701
						c5.46,10.915,12.599,20.827,21.135,29.355l6.806,7.13c-1.641,7.96-5.499,15.42-11.254,21.171
						c-7.88,7.875-18.358,12.212-29.502,12.212c-19.023,0-35.534-12.886-40.144-31.345l-2.703-15.298l12.393-7.722
						c5.923-3.388,9.602-9.729,9.602-16.553v-43.457v-20.293c0,0-30.91-12.59-79.964-12.59s-79.963,12.59-79.963,12.59v20.293
						v43.457c0,6.823,3.68,13.165,9.608,16.546l12.825,7.977c-3.28,24.996,2.454,54.656,16.496,75.722l0.382,0.564
						c19.348,29.032,51.723,46.36,86.607,46.36h29.013c41.384,0,79.173-25.951,94.026-64.584
						c5.474-14.233,7.601-29.649,6.294-44.829l7.555-7.256c8.626-8.629,15.77-18.541,21.233-29.457
						c7.829-15.664,11.967-33.194,11.967-50.7v-40.745L442.687,244.199z M215.943,260.008c6.025,1.9,12.424,2.931,19.064,2.931
						c6.638,0,13.037-1.03,19.062-2.931 M220.603,351.837c-1.674-3.781-4.468-7.008-8.331-8.94l-28.098-20.346v-21.49
						c0-3.5,2.853-6.353,6.354-6.353c11.489,0,22.988,2.714,33.271,7.854l11.209,5.605l11.208-5.605
						c10.281-5.14,21.783-7.854,33.272-7.854c3.497,0,6.353,2.853,6.353,6.353v21.49l-28.105,20.346
						c-3.863,1.933-6.652,5.159-8.325,8.94l-0.773,6.411c2.324,7.34,9.118,12.711,17.211,12.711h4.157
						c3.151,0,6.264-4.425,8.998-5.987l2.508-0.536l1.835,10.029c6.031,24.126,27.605,40.973,52.475,40.973
						c14.536,0,28.204-5.662,38.494-15.944c8.271-8.271,13.744-19.207,15.396-30.791l3.193-22.38
						c0.137-0.902,1.691-0.89,1.801,0.013l2.623,20.981c1.793,14.334-0.005,29.04-5.191,42.521
						c-12.98,33.755-46.004,56.431-82.164,56.431H280.96c-30.621,0-59.042-15.21-76.035-40.691l-0.38-0.566
						c-11.355-17.033-16.591-40.716-15.098-60.929l1.563,0.897c2.732,1.555,5.847,5.979,8.998,5.979h4.157
						c8.093,0,14.884-5.371,17.212-12.711"/>
				</g>
			</g>
		</g>
	</g>
	<rect x="196.882" y="186.687" fill="#9AC31C" width="12.708" height="12.708"/>
	<rect x="260.425" y="186.687" fill="#9AC31C" width="12.708" height="12.708"/>
</g>
<path opacity="0.1" fill="#FFFFFF" d="M0,0v564h90.004c0,0,155.496-341.497,473.996-493.997V0H0z"/>
</svg>
