<?xml version="1.0" encoding="utf-8"?>
<!-- Generator: Adobe Illustrator 15.0.0, SVG Export Plug-In . SVG Version: 6.00 Build 0)  -->
<!DOCTYPE svg PUBLIC "-//W3C//DTD SVG 1.1//EN" "http://www.w3.org/Graphics/SVG/1.1/DTD/svg11.dtd">
<svg version="1.1" id="Layer_1" xmlns="http://www.w3.org/2000/svg" xmlns:xlink="http://www.w3.org/1999/xlink" x="0px" y="0px"
	 width="564px" height="564px" viewBox="0 0 564 564" enable-background="new 0 0 564 564" xml:space="preserve">
<rect fill="#2190DC" width="564" height="564"/>
<g>
	<path fill="#30B3FF" d="M432.738,421.1h-0.74c0,0,0.339-6.989,0.339-15.196v-36.161c0-1.033-0.103-2.043-0.306-3.02
		c0.203-1.306,0.306-2.655,0.306-4.029V216.687c0-14.505-11.762-26.028-26.268-26.028H194.596
		c-14.506,0-25.947,11.523-25.947,26.028v130.719c0,14.507,11.441,26.305,25.945,26.305h178.529"/>
	<path fill="#FFFFFF" d="M136.738,389.188h0.74c0,0-0.338-6.99-0.338-15.196V337.83c0-1.033,0.103-2.043,0.306-3.02
		c-0.204-1.306-0.306-2.656-0.306-4.03V184.776c0-14.505,11.762-26.028,26.267-26.028h211.472c14.506,0,25.947,11.523,25.947,26.028
		v130.718c0,14.506-11.441,26.305-25.944,26.305H196.353"/>
</g>
</svg>
