<?xml version="1.0" encoding="utf-8"?>
<!-- Generator: Adobe Illustrator 22.0.0, SVG Export Plug-In . SVG Version: 6.00 Build 0)  -->
<svg version="1.1" id="Layer_1" xmlns="http://www.w3.org/2000/svg" xmlns:xlink="http://www.w3.org/1999/xlink" x="0px" y="0px"
	 viewBox="0 0 564 564" style="enable-background:new 0 0 564 564;" xml:space="preserve">
<style type="text/css">
	.st0{fill:#AF539A;}
	.st1{opacity:0.5;fill:#FFFFFF;enable-background:new    ;}
	.st2{fill:#FFFFFF;}
</style>
<g>
	<rect y="0" class="st0" width="564" height="564"/>
	<path class="st1" d="M387,447.2H174c-32.4,0-58.7-26.3-58.7-58.7V175.5c0-32.4,26.3-58.7,58.7-58.7H387c32.4,0,58.7,26.3,58.7,58.7
		v212.9C445.7,420.8,419.3,447.2,387,447.2z M174,156.8c-10.3,0-18.7,8.4-18.7,18.7v212.9c0,10.3,8.4,18.7,18.7,18.7H387
		c10.3,0,18.7-8.4,18.7-18.7V175.5c0-10.3-8.4-18.7-18.7-18.7H174z"/>
	<path class="st2" d="M434,144.4c-4.6-4.6-12.1-4.6-16.7,0l-176,175.2c-4.6,4.7-12.1,4.7-16.7,0L147.4,241c-2.3-2.3-5.3-3.5-8.3-3.5
		c-3,0-6.1,1.1-8.4,3.5l-34.1,30.6c-2.3,2.3-3.5,5.2-3.5,8.3c0,3.1,1.2,6.3,3.5,8.6l77.8,81.6c4.6,4.7,12.1,12.2,16.7,16.9
		l33.5,33.7c4.6,4.6,12.1,4.6,16.7,0l226.2-225.7c4.6-4.6,4.6-12.2,0-16.8L434,144.4z"/>
</g>
</svg>
