<?xml version="1.0" encoding="utf-8"?>
<!-- Generator: Adobe Illustrator 15.0.0, SVG Export Plug-In . SVG Version: 6.00 Build 0)  -->
<!DOCTYPE svg PUBLIC "-//W3C//DTD SVG 1.1//EN" "http://www.w3.org/Graphics/SVG/1.1/DTD/svg11.dtd">
<svg version="1.1" id="Layer_1" xmlns="http://www.w3.org/2000/svg" xmlns:xlink="http://www.w3.org/1999/xlink" x="0px" y="0px"
	 width="564px" height="564px" viewBox="0 0 564 564" enable-background="new 0 0 564 564" xml:space="preserve">
<rect fill="#AF539A" width="564" height="564"/>
<path opacity="0.5" fill="none" stroke="#FFFFFF" stroke-width="40" stroke-miterlimit="10" d="M425.67,388.46
	c0,21.381-17.332,38.713-38.713,38.713H174.036c-21.381,0-38.713-17.332-38.713-38.713V175.539
	c0-21.381,17.332-38.713,38.713-38.713h212.921c21.381,0,38.713,17.332,38.713,38.713V388.46z"/>
<path fill="#FFFFFF" d="M433.974,144.379c-4.609-4.642-12.129-4.642-16.711,0L241.252,319.576c-4.611,4.673-12.145,4.673-16.727,0
	l-77.112-78.528c-2.276-2.338-5.289-3.49-8.287-3.506c-3.028-0.015-6.119,1.138-8.44,3.506l-34.067,30.624
	c-2.275,2.336-3.505,5.242-3.505,8.287c0,3.06,1.23,6.256,3.505,8.562l77.774,81.603c4.598,4.674,12.13,12.223,16.711,16.85
	l33.453,33.698c4.582,4.612,12.1,4.612,16.711,0l226.158-225.743c4.614-4.628,4.614-12.238,0-16.849L433.974,144.379z"/>
</svg>
