<svg width="28" height="28" viewBox="0 0 28 28" fill="none" xmlns="http://www.w3.org/2000/svg">
<path d="M9.11563 14.9999C10.181 14.9999 10.7392 15.1077 11.3205 15.4187C11.8615 15.708 12.292 16.1385 12.5813 16.6794C12.8922 17.2608 13 17.8189 13 18.8843V21.1156C13 22.181 12.8922 22.7391 12.5813 23.3205C12.292 23.8614 11.8615 24.2919 11.3205 24.5812C10.7392 24.8922 10.181 24.9999 9.11563 24.9999H6.88437C5.81899 24.9999 5.26083 24.8922 4.67945 24.5812C4.13851 24.2919 3.70801 23.8614 3.41871 23.3205C3.10779 22.7391 3 22.181 3 21.1156V18.8843C3 17.8189 3.10779 17.2608 3.41871 16.6794C3.70801 16.1385 4.13851 15.708 4.67945 15.4187C5.26083 15.1077 5.81899 14.9999 6.88437 14.9999H9.11563ZM21.1156 14.9999C22.181 14.9999 22.7392 15.1077 23.3206 15.4187C23.8615 15.708 24.292 16.1385 24.5813 16.6794C24.8922 17.2608 25 17.8189 25 18.8843V21.1156C25 22.181 24.8922 22.7391 24.5813 23.3205C24.292 23.8614 23.8615 24.2919 23.3206 24.5812C22.7392 24.8922 22.181 24.9999 21.1156 24.9999H18.8844C17.819 24.9999 17.2608 24.8922 16.6794 24.5812C16.1385 24.2919 15.708 23.8614 15.4187 23.3205C15.1078 22.7391 15 22.181 15 21.1156V18.8843C15 17.8189 15.1078 17.2608 15.4187 16.6794C15.708 16.1385 16.1385 15.708 16.6794 15.4187C17.2608 15.1077 17.819 14.9999 18.8844 14.9999H21.1156ZM9.11563 16.9999H6.88437C6.12092 16.9999 5.87468 17.0475 5.62265 17.1823C5.43025 17.2852 5.28523 17.4302 5.18234 17.6226C5.04755 17.8746 5 18.1209 5 18.8843V21.1156C5 21.879 5.04755 22.1253 5.18234 22.3773C5.28523 22.5697 5.43025 22.7147 5.62265 22.8176C5.87468 22.9524 6.12092 22.9999 6.88437 22.9999H9.11563C9.87908 22.9999 10.1253 22.9524 10.3774 22.8176C10.5698 22.7147 10.7148 22.5697 10.8177 22.3773C10.9524 22.1253 11 21.879 11 21.1156V18.8843C11 18.1209 10.9524 17.8746 10.8177 17.6226C10.7148 17.4302 10.5698 17.2852 10.3774 17.1823C10.1253 17.0475 9.87908 16.9999 9.11563 16.9999ZM21.1156 16.9999H18.8844C18.1209 16.9999 17.8747 17.0475 17.6226 17.1823C17.4303 17.2852 17.2852 17.4302 17.1823 17.6226C17.0476 17.8746 17 18.1209 17 18.8843V21.1156C17 21.879 17.0476 22.1253 17.1823 22.3773C17.2852 22.5697 17.4303 22.7147 17.6226 22.8176C17.8747 22.9524 18.1209 22.9999 18.8844 22.9999H21.1156C21.8791 22.9999 22.1253 22.9524 22.3774 22.8176C22.5697 22.7147 22.7148 22.5697 22.8177 22.3773C22.9524 22.1253 23 21.879 23 21.1156V18.8843C23 18.1209 22.9524 17.8746 22.8177 17.6226C22.7148 17.4302 22.5697 17.2852 22.3774 17.1823C22.1253 17.0475 21.8791 16.9999 21.1156 16.9999ZM20.8915 2.4125C21.5224 2.60375 21.9933 2.92221 22.7467 3.67555L24.3244 5.25328C25.0777 6.00662 25.3962 6.47752 25.5874 7.10847C25.7654 7.69553 25.7654 8.30436 25.5874 8.89143C25.3962 9.52238 25.0777 9.99327 24.3244 10.7466L22.7467 12.3244C21.9933 13.0777 21.5224 13.3962 20.8915 13.5874C20.3044 13.7653 19.6956 13.7653 19.1085 13.5874C18.4776 13.3962 18.0067 13.0777 17.2533 12.3244L15.6756 10.7466C14.9223 9.99327 14.6038 9.52238 14.4126 8.89143C14.2346 8.30436 14.2346 7.69553 14.4126 7.10847C14.6038 6.47752 14.9223 6.00662 15.6756 5.25328L17.2533 3.67555C18.0067 2.92221 18.4776 2.60375 19.1085 2.4125C19.6956 2.23457 20.3044 2.23457 20.8915 2.4125ZM9.11563 2.99995C10.181 2.99995 10.7392 3.10773 11.3205 3.41866C11.8615 3.70796 12.292 4.13846 12.5813 4.6794C12.8922 5.26078 13 5.81894 13 6.88432V9.11558C13 10.181 12.8922 10.7391 12.5813 11.3205C12.292 11.8614 11.8615 12.2919 11.3205 12.5812C10.7392 12.8922 10.181 12.9999 9.11563 12.9999H6.88437C5.81899 12.9999 5.26083 12.8922 4.67945 12.5812C4.13851 12.2919 3.70801 11.8614 3.41871 11.3205C3.10779 10.7391 3 10.181 3 9.11558V6.88432C3 5.81894 3.10779 5.26078 3.41871 4.6794C3.70801 4.13846 4.13851 3.70796 4.67945 3.41866C5.26083 3.10773 5.81899 2.99995 6.88437 2.99995H9.11563ZM19.6887 4.32652C19.4151 4.40942 19.2074 4.54992 18.6675 5.08976L17.0898 6.6675C16.55 7.20734 16.4095 7.41508 16.3266 7.6886C16.2633 7.89741 16.2633 8.10249 16.3266 8.3113C16.4095 8.58481 16.55 8.79256 17.0898 9.3324L18.6675 10.9101C19.2074 11.45 19.4151 11.5905 19.6887 11.6734C19.8975 11.7367 20.1025 11.7367 20.3113 11.6734C20.5849 11.5905 20.7926 11.45 21.3325 10.9101L22.9102 9.3324C23.45 8.79256 23.5905 8.58481 23.6734 8.3113C23.7367 8.10249 23.7367 7.89741 23.6734 7.6886C23.5905 7.41508 23.45 7.20734 22.9102 6.6675L21.3325 5.08976C20.7926 4.54992 20.5849 4.40942 20.3113 4.32652C20.1025 4.26323 19.8975 4.26323 19.6887 4.32652ZM9.11563 4.99995H6.88437C6.12092 4.99995 5.87468 5.0475 5.62265 5.18229C5.43025 5.28518 5.28523 5.4302 5.18234 5.6226C5.04755 5.87462 5 6.12087 5 6.88432V9.11558C5 9.87903 5.04755 10.1253 5.18234 10.3773C5.28523 10.5697 5.43025 10.7147 5.62265 10.8176C5.87468 10.9524 6.12092 10.9999 6.88437 10.9999H9.11563C9.87908 10.9999 10.1253 10.9524 10.3774 10.8176C10.5698 10.7147 10.7148 10.5697 10.8177 10.3773C10.9524 10.1253 11 9.87903 11 9.11558V6.88432C11 6.12087 10.9524 5.87462 10.8177 5.6226C10.7148 5.4302 10.5698 5.28518 10.3774 5.18229C10.1253 5.0475 9.87908 4.99995 9.11563 4.99995Z" fill="currentColor"/>
</svg>
