<svg width="28" height="28" viewBox="0 0 28 28" fill="none" xmlns="http://www.w3.org/2000/svg">
<path d="M14.0046 3.5C18.5359 3.5 22 7.29407 22 12.0815L21.9954 13.9081C21.9958 14.2154 22.1946 14.5707 22.7335 15.205C22.8012 15.2847 22.8649 15.3585 23.0043 15.5195C24.0744 16.7577 24.5 17.4745 24.5 18.5882C24.5 19.0893 24.443 19.4785 24.2056 19.9456C23.6996 20.9409 22.6182 21.5 21 21.5L18.3989 21.5007C17.731 23.7645 16.2123 25 14 25C11.7877 25 10.269 23.7645 9.60115 21.5007L7 21.5C5.33483 21.5 4.24203 20.9258 3.75797 19.8962C3.54802 19.4497 3.5 19.0875 3.5 18.5882C3.5 17.475 3.92475 16.7582 4.99283 15.5202C5.13191 15.3592 5.19552 15.2854 5.26308 15.2057C5.80171 14.5706 6 14.2151 6 13.9071V12.0789C6 7.29571 9.47202 3.5 14.0046 3.5ZM16.2794 21.5008H11.7206C12.1714 22.5432 12.8987 23 14 23C15.1013 23 15.8286 22.5432 16.2794 21.5008ZM14.0046 5.5C10.6184 5.5 8 8.36245 8 12.0789V13.9071C8 14.8348 7.6156 15.5239 6.78841 16.4993C6.71509 16.5857 6.64587 16.6661 6.50717 16.8266C5.74712 17.7076 5.5 18.1246 5.5 18.5882C5.5 18.8144 5.51597 18.9348 5.56791 19.0453C5.69184 19.3089 6.05558 19.5 7 19.5H21C21.9142 19.5 22.2863 19.3076 22.4228 19.0392C22.4818 18.923 22.5 18.7989 22.5 18.5882C22.5 18.1251 22.2524 17.7081 21.4911 16.8273C21.3522 16.6668 21.2828 16.5864 21.2094 16.5C20.3806 15.5245 19.9954 14.8353 19.9954 13.9071L20 12.0789C20 8.36008 17.3886 5.5 14.0046 5.5Z" fill="currentColor"/>
</svg>
