<svg width="28" height="28" viewBox="0 0 28 28" xmlns="http://www.w3.org/2000/svg">
    <path style="fill:currentColor" d="M17 2C18.3063 2 19.4175 2.83485 19.8293 4.00009L10.1278 4C8.34473 4 7.69816 4.18565 7.04631 4.53427C6.39446 4.88288 5.88288 5.39446 5.53427 6.04631C5.18565 6.69816 5 7.34473 5 9.12777L5.00009 19.8293C3.83485 19.4175 3 18.3063 3 17V8C3 4.68629 5.68629 2 9 2H17ZM21 6C22.6569 6 24 7.34315 24 9V22C24 23.6569 22.6569 25 21 25H10C8.34315 25 7 23.6569 7 22V9C7 7.34315 8.34315 6 10 6H21ZM21 8H10C9.44772 8 9 8.44772 9 9V22C9 22.5523 9.44772 23 10 23H21C21.5523 23 22 22.5523 22 22V9C22 8.44772 21.5523 8 21 8Z"/>
</svg>
