<svg width="24" height="24" viewBox="0 0 24 24"  xmlns="http://www.w3.org/2000/svg">
    <path style="fill:currentColor" d="M12 0.5C14.3764 0.5 15.9252 1.73358 16.4217 3.99953L22.5 4C23.0523 4 23.5 4.44772 23.5 5C23.5 5.55228 23.0523 6 22.5 6H21.395L19.7827 21.3141C19.622 22.8409 18.3345 24 16.7992 24H7.20079C5.66551 24 4.37799 22.8409 4.21727 21.3141L2.605 6H1.5C0.947715 6 0.5 5.55228 0.5 5C0.5 4.44772 0.947715 4 1.5 4L7.57826 3.99953C8.07482 1.73358 9.62365 0.5 12 0.5ZM19.383 6H4.616L6.20628 21.1047C6.25985 21.6136 6.68903 22 7.20079 22H16.7992C17.311 22 17.7401 21.6136 17.7937 21.1047L19.383 6ZM12 8C12.5523 8 13 8.44772 13 9V19C13 19.5523 12.5523 20 12 20C11.4477 20 11 19.5523 11 19V9C11 8.44772 11.4477 8 12 8ZM16.0499 8.00125C16.6015 8.02883 17.0263 8.49834 16.9988 9.04994L16.4988 19.0499C16.4712 19.6015 16.0017 20.0263 15.4501 19.9988C14.8985 19.9712 14.4737 19.5017 14.5012 18.9501L15.0012 8.95006C15.0288 8.39847 15.4983 7.97367 16.0499 8.00125ZM7.95006 8.00125C8.50166 7.97367 8.97117 8.39847 8.99875 8.95006L9.49875 18.9501C9.52633 19.5017 9.10153 19.9712 8.54994 19.9988C7.99834 20.0263 7.52883 19.6015 7.50125 19.0499L7.00125 9.04994C6.97367 8.49834 7.39847 8.02883 7.95006 8.00125ZM12 2.5C10.7333 2.5 10.0003 2.95411 9.64783 3.99956H14.3522C13.9997 2.95411 13.2667 2.5 12 2.5Z"/>
</svg>
