<svg xmlns="http://www.w3.org/2000/svg" xmlns:xlink="http://www.w3.org/1999/xlink" width="28px" height="28px" viewBox="0 0 28 28" version="1.1">
    <g id="surface1">
        <path style="fill:currentColor;stroke:none;fill-rule:nonzero;" d="M 21 22 C 21.550781 22 22 22.449219 22 23 C 22 23.550781 21.550781 24 21 24 L 7 24 C 6.449219 24 6 23.550781 6 23 C 6 22.449219 6.449219 22 7 22 Z M 14 2 C 14.550781 2 15 2.449219 15 3 L 15 16.585938 L 20.292969 11.292969 C 20.683594 10.902344 21.316406 10.902344 21.707031 11.292969 C 22.097656 11.683594 22.097656 12.316406 21.707031 12.707031 L 14.707031 19.707031 C 14.316406 20.097656 13.683594 20.097656 13.292969 19.707031 L 6.292969 12.707031 C 5.902344 12.316406 5.902344 11.683594 6.292969 11.292969 C 6.683594 10.902344 7.316406 10.902344 7.707031 11.292969 L 13 16.585938 L 13 3 C 13 2.449219 13.449219 2 14 2 Z M 14 2 "/>
    </g>
</svg>
