<svg width="28" height="28" viewBox="0 0 28 28" xmlns="http://www.w3.org/2000/svg">
    <path style="fill:currentColor" d="M14 5.36664C20.0664 5.36664 26.1334 10.3101 26.1334 14C26.1334 17.6898 20.0664 22.6333 14 22.6333C7.9337 22.6333 1.8667 17.6898 1.8667 14C1.8667 10.3101 7.9337 5.36664 14 5.36664ZM14 7.46664C9.00955 7.46664 3.9667 11.5756 3.9667 14C3.9667 16.4243 9.00955 20.5333 14 20.5333C18.9905 20.5333 24.0334 16.4243 24.0334 14C24.0334 11.5756 18.9905 7.46664 14 7.46664ZM14 10.0333C16.1908 10.0333 17.9667 11.8092 17.9667 14C17.9667 16.1907 16.1908 17.9666 14 17.9666C11.8093 17.9666 10.0334 16.1907 10.0334 14C10.0334 11.8092 11.8093 10.0333 14 10.0333ZM14 12.1333C12.9691 12.1333 12.1334 12.969 12.1334 14C12.1334 15.0309 12.9691 15.8666 14 15.8666C15.031 15.8666 15.8667 15.0309 15.8667 14C15.8667 12.969 15.031 12.1333 14 12.1333Z"/>
</svg>
