<svg width="32" height="32" viewBox="0 0 32 32" fill="none" xmlns="http://www.w3.org/2000/svg">
    <path style="fill:currentColor" fill-rule="evenodd" clip-rule="evenodd" d="M17.2798 15.2H21.1198C22.5035 15.2 23.397 15.2019 24.077 15.2575C24.729 15.3107 24.9707 15.4012 25.0894 15.4616C25.541 15.6917 25.9081 16.0589 26.1382 16.5105C26.1987 16.6291 26.2891 16.8709 26.3424 17.5229C26.3979 18.2029 26.3998 19.0963 26.3998 20.48V21.12C26.3998 22.5038 26.3979 23.3972 26.3424 24.0772C26.2891 24.7292 26.1987 24.971 26.1382 25.0896C25.9081 25.5412 25.541 25.9084 25.0894 26.1385C24.9707 26.1989 24.729 26.2894 24.077 26.3426C23.397 26.3982 22.5035 26.4 21.1198 26.4H17.2798C15.8961 26.4 15.0026 26.3982 14.3226 26.3426C13.6706 26.2894 13.4289 26.1989 13.3102 26.1385C12.8586 25.9084 12.4915 25.5412 12.2614 25.0896C12.2009 24.971 12.1105 24.7292 12.0572 24.0772C12.0017 23.3972 11.9998 22.5038 11.9998 21.12V20.48C11.9998 19.0963 12.0017 18.2029 12.0572 17.5229C12.1105 16.8709 12.2009 16.6291 12.2614 16.5105C12.4915 16.0589 12.8586 15.6917 13.3102 15.4616C13.4289 15.4012 13.6706 15.3107 14.3226 15.2575C15.0026 15.2019 15.8961 15.2 17.2798 15.2ZM28.2766 15.4209C28.7998 16.4477 28.7998 17.7918 28.7998 20.48V21.12C28.7998 23.8083 28.7998 25.1524 28.2766 26.1792C27.8164 27.0824 27.0821 27.8167 26.179 28.2769C25.1522 28.8 23.8081 28.8 21.1198 28.8H17.2798C14.5916 28.8 13.2474 28.8 12.2206 28.2769C11.3175 27.8167 10.5832 27.0824 10.123 26.1792C9.5998 25.1524 9.5998 23.8083 9.5998 21.12V20.48C9.5998 17.7918 9.5998 16.4477 10.123 15.4209C10.5832 14.5177 11.3175 13.7834 12.2206 13.3232C13.2474 12.8 14.5916 12.8 17.2798 12.8H21.1198C23.8081 12.8 25.1522 12.8 26.179 13.3232C27.0821 13.7834 27.8164 14.5177 28.2766 15.4209Z" />
    <path style="fill:currentColor" fill-rule="evenodd" clip-rule="evenodd" d="M10.3513 3.15152C9.88265 3.62015 9.88265 4.37995 10.3513 4.84858L11.5027 6.00005H11.1998C7.00244 6.00005 3.5998 9.40268 3.5998 13.6V17.6C3.5998 18.2628 4.13706 18.8 4.7998 18.8C5.46255 18.8 5.9998 18.2628 5.9998 17.6V13.6C5.9998 10.7282 8.32792 8.40005 11.1998 8.40005H11.5027L10.3513 9.55152C9.88265 10.0202 9.88265 10.7799 10.3513 11.2486C10.8199 11.7172 11.5797 11.7172 12.0483 11.2486L15.2483 8.04858C15.717 7.57995 15.717 6.82015 15.2483 6.35152L12.0483 3.15152C11.5797 2.68289 10.8199 2.68289 10.3513 3.15152Z" />
</svg>
