<svg width="28" height="28" viewBox="0 0 28 28" fill="none" xmlns="http://www.w3.org/2000/svg">
<path d="M15.1481 2.04074C15.5756 2.10915 15.9801 2.27274 16.3432 2.56326C16.9381 3.03918 17.2214 3.63909 17.4404 4.51493C17.4964 4.73914 17.5934 5.00052 17.7146 5.25421C17.9927 5.37243 18.2648 5.50383 18.5299 5.6479C18.7917 5.58323 19.0431 5.49734 19.2438 5.40389C20.6561 4.74644 21.8408 4.78098 22.811 5.82744C22.8931 5.91595 22.9421 5.97458 23.0487 6.10623L23.678 6.88337C23.8472 7.09238 23.9195 7.18761 24.0263 7.3653C24.7182 8.51673 24.4484 9.58909 23.5739 10.7511C23.4288 10.9439 23.2806 11.1963 23.1567 11.4618C23.2349 11.7444 23.3 12.0309 23.3518 12.3206C23.5745 12.499 23.8113 12.6554 24.0204 12.7621C24.8245 13.1725 25.3454 13.5835 25.6753 14.2702C25.8766 14.6894 25.9451 15.1202 25.9155 15.5522C25.8999 15.7805 25.8753 15.9078 25.8095 16.1928L25.5845 17.1672C25.5187 17.4521 25.4851 17.5773 25.399 17.7894C25.2362 18.1906 24.9858 18.5479 24.6211 18.8364C24.0235 19.3089 23.3753 19.45 22.4726 19.4663C22.2443 19.4705 21.9714 19.5054 21.7 19.5652C21.5235 19.809 21.3356 20.0443 21.1369 20.2704C21.1403 20.5446 21.1676 20.814 21.2143 21.0344C21.4014 21.9176 21.4098 22.581 21.0837 23.2695C20.8847 23.6898 20.5929 24.0141 20.2386 24.2631C20.0513 24.3946 19.9369 24.4555 19.674 24.5837L18.7752 25.0221C18.5124 25.1503 18.3939 25.203 18.175 25.2696C17.7607 25.3955 17.3255 25.4258 16.8717 25.3238C16.1284 25.1569 15.6108 24.7419 15.0301 24.0506C14.8765 23.8679 14.6668 23.6691 14.4387 23.49C14.2929 23.4967 14.1467 23.5 14.0001 23.5C13.8535 23.5 13.7073 23.4967 13.5615 23.49C13.3334 23.6691 13.1236 23.8679 12.9701 24.0506C12.3894 24.7419 11.8718 25.1569 11.1284 25.3238C10.6747 25.4258 10.2395 25.3955 9.82522 25.2696C9.60625 25.203 9.4878 25.1503 9.22493 25.0221L8.32613 24.5837C8.24711 24.5453 8.19809 24.521 8.14084 24.4912C6.82929 23.8082 6.4448 22.6441 6.78589 21.0344C6.83259 20.814 6.85984 20.5446 6.86325 20.2704C6.66455 20.0443 6.47662 19.809 6.30015 19.5652C6.02873 19.5054 5.75588 19.4705 5.52755 19.4663C4.62491 19.45 3.97663 19.3089 3.3791 18.8364C3.01433 18.5479 2.76396 18.1906 2.60113 17.7894C2.51506 17.5773 2.48145 17.4521 2.41566 17.1672L2.1907 16.1928C2.12105 15.8911 2.09539 15.7565 2.08217 15.512C2.0574 15.0537 2.14511 14.5984 2.37774 14.1664C2.71669 13.537 3.21839 13.1507 3.97976 12.7621C4.18888 12.6554 4.42565 12.499 4.64841 12.3206C4.70016 12.0309 4.76527 11.7444 4.84345 11.4618C4.71952 11.1963 4.57137 10.9439 4.42627 10.7511C3.55178 9.58909 3.28201 8.51673 3.97387 7.3653C4.08064 7.18761 4.15294 7.09238 4.32219 6.88337L4.95151 6.10623C5.05811 5.97458 5.10711 5.91595 5.18917 5.82744C6.15937 4.78098 7.34411 4.74644 8.75636 5.40389C8.95709 5.49734 9.20847 5.58323 9.47022 5.6479C9.73541 5.50383 10.0075 5.37243 10.2855 5.25421C10.4068 5.00052 10.5037 4.73914 10.5598 4.51493C10.7788 3.63909 11.0621 3.03918 11.6569 2.56326C12.0201 2.27274 12.4245 2.10915 12.8521 2.04074C13.0329 2.01182 13.1519 2.0031 13.3421 2.00077L14.5001 2C14.7926 2 14.9221 2.00459 15.1481 2.04074ZM14.5858 4.0002L13.5001 4C13.0001 4 12.7501 4 12.5001 5C12.3613 5.55507 12.0685 6.26419 11.6644 6.87084C11.0218 7.08124 10.4174 7.37609 9.86447 7.74228C9.1477 7.67166 8.42438 7.45545 7.91227 7.21704C6.97779 6.78201 6.82046 6.97629 6.5058 7.36487L5.87648 8.14201C5.56182 8.53059 5.40449 8.72487 6.02431 9.54848C6.37316 10.012 6.74544 10.6984 6.96132 11.4045C6.74026 12.0038 6.59355 12.6392 6.53239 13.2993C6.03077 13.8335 5.40143 14.282 4.88886 14.5436C3.97073 15.0121 4.02697 15.2557 4.13944 15.7429L4.3644 16.7173C4.47687 17.2044 4.53311 17.448 5.56372 17.4667C6.13354 17.477 6.88668 17.6018 7.5666 17.8571C7.91193 18.4319 8.33211 18.9565 8.81365 19.4177C8.908 20.1352 8.86015 20.8935 8.74245 21.449C8.52878 22.4574 8.75348 22.567 9.20288 22.7862L10.1017 23.2245C10.5511 23.4437 10.7758 23.5533 11.4388 22.7641C11.8106 22.3216 12.3926 21.8067 13.0293 21.4377C13.3471 21.4788 13.6711 21.5 14.0001 21.5C14.329 21.5 14.6531 21.4788 14.9709 21.4377C15.6075 21.8067 16.1895 22.3216 16.5613 22.7641C17.2244 23.5533 17.4491 23.4437 17.8985 23.2245L18.7973 22.7862C19.2467 22.567 19.4714 22.4574 19.2577 21.449C19.14 20.8935 19.0922 20.1352 19.1865 19.4177C19.6681 18.9565 20.0882 18.4319 20.4336 17.8571C21.1135 17.6018 21.8666 17.477 22.4365 17.4667C23.4671 17.448 23.5233 17.2044 23.6358 16.7173L23.8607 15.7429C23.9732 15.2557 24.0294 15.0121 23.1113 14.5436C22.5987 14.282 21.9694 13.8335 21.4678 13.2993C21.4066 12.6392 21.2599 12.0038 21.0388 11.4045C21.2547 10.6984 21.627 10.012 21.9759 9.54848C22.5957 8.72487 22.4383 8.53059 22.1237 8.14201L21.4944 7.36487C21.1797 6.97629 21.0224 6.78201 20.0879 7.21704C19.5758 7.45545 18.8525 7.67166 18.1357 7.74228C17.5827 7.37609 16.9784 7.08124 16.3358 6.87084C15.9317 6.26419 15.6389 5.55507 15.5001 5C15.2648 4.05882 15.0295 4.00346 14.5858 4.0002ZM14.0001 9.5C16.4854 9.5 18.5001 11.5147 18.5001 14C18.5001 16.4853 16.4854 18.5 14.0001 18.5C11.5148 18.5 9.50008 16.4853 9.50008 14C9.50008 11.5147 11.5148 9.5 14.0001 9.5ZM14.0001 11.5C12.6194 11.5 11.5001 12.6193 11.5001 14C11.5001 15.3807 12.6194 16.5 14.0001 16.5C15.3808 16.5 16.5001 15.3807 16.5001 14C16.5001 12.6193 15.3808 11.5 14.0001 11.5Z" fill="currentColor"/>
</svg>
