<svg width="28" height="28" viewBox="0 0 28 28" xmlns="http://www.w3.org/2000/svg">
    <path style="fill:currentColor" d="M13.8616 4.00652C12.5243 4.10158 11.4687 5.22458 11.4687 6.59595L11.4675 9.15215L11.4431 9.15807C6.01078 10.2918 2 15.141 2 20.8621C2 21.2778 2.0211 21.6921 2.06284 22.1029C2.16235 23.0823 3.40005 23.4343 3.99325 22.6518L4.21715 22.3663C5.96626 20.2093 8.45653 18.7944 11.2117 18.4237L11.4675 18.3925L11.4687 21.4042C11.4687 21.9845 11.662 22.5484 12.0175 23.0053C12.8954 24.1337 14.5152 24.3315 15.6353 23.4471L25.0126 16.0431C25.1759 15.9142 25.3232 15.7658 25.4511 15.6013C26.3291 14.4729 26.1328 12.8412 25.0126 11.9568L15.6353 4.55279C15.1817 4.19463 14.622 4 14.0457 4L13.8616 4.00652ZM14.0457 6.17336C14.1395 6.17336 14.2306 6.20504 14.3045 6.26335L23.6817 13.6673C23.8641 13.8113 23.896 14.0769 23.7531 14.2606C23.7323 14.2874 23.7083 14.3116 23.6817 14.3326L14.3045 21.7365C14.1221 21.8805 13.8584 21.8483 13.7155 21.6646C13.6576 21.5902 13.6262 21.4984 13.6262 21.4039L13.625 17.2416C13.6248 16.6345 13.131 16.1454 12.5285 16.1553L12.2491 16.16L11.8389 16.1799C9.11324 16.3552 6.56909 17.3718 4.50538 19.0365L4.29647 19.21L4.325 19.0465C5.09546 14.9226 8.44201 11.6748 12.6771 11.1545C13.2182 11.088 13.6251 10.6253 13.6252 10.0761L13.6262 6.59625C13.6262 6.36256 13.814 6.17336 14.0457 6.17336Z"/>
</svg>
