<svg width="16" height="16" viewBox="0 0 16 16" fill="none" xmlns="http://www.w3.org/2000/svg">
<path style="fill:currentColor" fill-rule="evenodd" clip-rule="evenodd" d="M10.7818 4.72113C11.0747 5.01402 11.0747 5.4889 10.7818 5.78179L4.78182 11.7818C4.48893 12.0747 4.01405 12.0747 3.72116 11.7818L1.21967 9.2803C0.926777 8.98741 0.926777 8.51253 1.21967 8.21964C1.51256 7.92675 1.98744 7.92675 2.28033 8.21964L4.25149 10.1908L9.72116 4.72113C10.0141 4.42824 10.4889 4.42824 10.7818 4.72113Z"/>
<path style="fill:currentColor" fill-rule="evenodd" clip-rule="evenodd" d="M15.0303 4.72113C15.3232 5.01403 15.3232 5.4889 15.0303 5.78179L9.03033 11.7818C8.73744 12.0747 8.26256 12.0747 7.96967 11.7818C7.67678 11.4889 7.67678 11.014 7.96967 10.7211L13.9697 4.72113C14.2626 4.42824 14.7374 4.42824 15.0303 4.72113Z"/>
</svg>
