<svg width="24" height="24" viewBox="0 0 24 24" fill="none" xmlns="http://www.w3.org/2000/svg">
<path fill-rule="evenodd" clip-rule="evenodd" d="M13.3972 7.59762L16.5454 10.0614C16.7512 10.2225 16.8541 10.303 16.9302 10.3389C17.3638 10.5433 17.8752 10.2942 17.9814 9.82675C18 9.74469 18 9.61401 18 9.35266V8.39986C19.0995 8.39986 19.9668 8.73976 20.6087 9.14276C20.9521 9.35839 21.1239 9.46621 21.1862 9.48705C21.5625 9.61293 21.9142 9.35738 21.9107 8.96058C21.9101 8.89488 21.8807 8.77813 21.8219 8.54462C21.4766 7.17336 20.5306 5.49792 18 5.09986V4.04707C18 3.78572 18 3.65504 17.9814 3.57298C17.8752 3.10558 17.3638 2.85641 16.9302 3.06082C16.8541 3.09671 16.7512 3.17724 16.5454 3.33831L13.3972 5.8021C13.2244 5.93735 13.138 6.00497 13.0807 6.0696C12.7618 6.42926 12.7618 6.97046 13.0807 7.33012C13.138 7.39475 13.2244 7.4624 13.3972 7.59762ZM11.374 4.91994C11.87 4.88799 12.2462 4.45998 12.2143 3.96395C12.1823 3.46792 11.7543 3.09171 11.2583 3.12366C6.25946 3.44561 2.10005 7.05972 2.10005 11.7141C2.10005 13.3196 2.60433 14.8175 3.47266 16.0892C3.43808 16.3779 3.34977 16.7728 3.1852 17.2896C2.96785 17.9723 2.63531 18.8139 2.18039 19.8201C1.891 20.4602 2.17533 21.2138 2.81547 21.5032C2.99545 21.5845 3.19192 21.6229 3.38931 21.6151C5.58946 21.5288 7.39699 20.9762 8.64655 19.8223C9.69589 20.1505 10.8254 20.3284 12 20.3284C17.0976 20.3284 21.4801 16.9295 21.8721 12.3659C21.9147 11.8706 21.5477 11.4347 21.0525 11.3921C20.5573 11.3496 20.1213 11.7165 20.0788 12.2118C19.7849 15.6323 16.3926 18.5284 12 18.5284C10.8263 18.5284 9.71471 18.3182 8.71284 17.9426C8.35773 17.8095 7.95728 17.9133 7.7115 18.2021C7.03074 19.002 5.90177 19.5604 4.17536 19.7532C4.47763 19.0414 4.72024 18.4015 4.90036 17.8358C5.1419 17.0771 5.2902 16.3943 5.2902 15.8262C5.2902 15.6327 5.22787 15.4444 5.11245 15.2892C4.33812 14.2477 3.90005 13.021 3.90005 11.7141C3.90005 8.24205 7.07066 5.19709 11.374 4.91994Z" fill="currentColor"/>
</svg>
