<svg width="24" height="24" viewBox="0 0 24 24" fill="none" xmlns="http://www.w3.org/2000/svg">
<path fill-rule="evenodd" clip-rule="evenodd" d="M9.56169 4.10006L13.1001 4.10006C13.5972 4.10006 14.0001 4.503 14.0001 5.00006C14.0001 5.49712 13.5972 5.90006 13.1001 5.90006H9.6001C8.60515 5.90006 7.91307 5.90076 7.37459 5.94476C6.84662 5.98789 6.54605 6.06813 6.31972 6.18344C5.8305 6.43271 5.43275 6.83046 5.18348 7.31968C5.06816 7.54601 4.98793 7.84658 4.94479 8.37456C4.9008 8.91304 4.9001 9.60512 4.9001 10.6001V14.4001C4.9001 15.395 4.9008 16.0871 4.94479 16.6256C4.98793 17.1535 5.06816 17.4541 5.18348 17.6804C5.43275 18.1697 5.8305 18.5674 6.31972 18.8167C6.54605 18.932 6.84662 19.0122 7.37459 19.0554C7.91308 19.0994 8.60516 19.1001 9.6001 19.1001H13.4001C14.395 19.1001 15.0871 19.0994 15.6256 19.0554C16.1536 19.0122 16.4541 18.932 16.6805 18.8167C17.1697 18.5674 17.5674 18.1697 17.8167 17.6804C17.932 17.4541 18.0123 17.1535 18.0554 16.6256C18.0994 16.0871 18.1001 15.395 18.1001 14.4001V10.9001C18.1001 10.403 18.503 10.0001 19.0001 10.0001C19.4972 10.0001 19.9001 10.403 19.9001 10.9001V14.4385C19.9001 15.386 19.9001 16.1517 19.8494 16.7721C19.7972 17.4114 19.6867 17.9753 19.4205 18.4976C18.9987 19.3255 18.3256 19.9986 17.4977 20.4205C16.9753 20.6866 16.4115 20.7972 15.7722 20.8494C15.1518 20.9001 14.386 20.9001 13.4385 20.9001H9.56169C8.61419 20.9001 7.84844 20.9001 7.22802 20.8494C6.58873 20.7972 6.02491 20.6866 5.50254 20.4205C4.67463 19.9986 4.00151 19.3255 3.57967 18.4976C3.31351 17.9753 3.203 17.4114 3.15077 16.7721C3.10008 16.1517 3.10009 15.386 3.1001 14.4385V10.5617C3.10009 9.61415 3.10008 8.8484 3.15077 8.22798C3.203 7.58869 3.31351 7.02487 3.57967 6.5025C4.00151 5.67459 4.67463 5.00147 5.50254 4.57963C6.02491 4.31347 6.58873 4.20297 7.22802 4.15073C7.84844 4.10004 8.61419 4.10005 9.56169 4.10006Z" fill="currentColor"/>
<path fill-rule="evenodd" clip-rule="evenodd" d="M19.1248 3.3256C19.5543 2.89602 20.2508 2.89602 20.6804 3.3256C21.11 3.75518 21.11 4.45166 20.6804 4.88124L20.3268 5.23479C20.1706 5.391 19.9174 5.391 19.7612 5.23479L18.7712 4.24484C18.615 4.08863 18.615 3.83536 18.7712 3.67915L19.1248 3.3256ZM18.5241 5.90028L18.0998 5.47602C17.663 5.03914 17.3799 5.06461 16.9685 5.47602C15.2596 7.18486 13.5508 8.8937 11.842 10.6025C9.88934 12.5552 8.65467 14.4863 9.08424 14.9159C9.51382 15.3455 11.445 14.1108 13.3976 12.1582C15.1064 10.4493 16.8152 8.74044 18.5241 7.03165C18.961 6.59477 18.9355 6.31168 18.5241 5.90028Z" fill="currentColor"/>
</svg>
