<svg width="34" height="34" viewBox="0 0 34 34" fill="none" xmlns="http://www.w3.org/2000/svg">
<path style="fill:currentColor" d="M17 0C26.3888 0 34 7.61116 34 17C34 26.3888 26.3888 34 17 34C7.61116 34 0 26.3888 0 17C0 7.61116 7.61116 0 17 0ZM17 10L16.9816 10.0002C16.958 10.0006 16.9343 10.0019 16.9107 10.004L17 10C16.9494 10 16.8996 10.0038 16.851 10.011C16.8341 10.0136 16.8166 10.0167 16.7993 10.0202C16.7773 10.0246 16.7556 10.0298 16.7342 10.0357C16.7185 10.0401 16.7031 10.0447 16.6879 10.0497C16.6682 10.0561 16.6484 10.0633 16.6289 10.0711C16.6112 10.0782 16.5939 10.0857 16.5768 10.0937C16.5561 10.1034 16.5357 10.1138 16.5157 10.1249C16.5036 10.1315 16.4914 10.1386 16.4793 10.146C16.4537 10.1617 16.4289 10.1785 16.4048 10.1963C16.3974 10.2018 16.3902 10.2073 16.383 10.2129L16.3746 10.2197L16.2929 10.2929L10.7929 15.7929C10.4024 16.1834 10.4024 16.8166 10.7929 17.2071C11.1834 17.5976 11.8166 17.5976 12.2071 17.2071L16 13.414V23.5C16 24.0523 16.4477 24.5 17 24.5C17.5523 24.5 18 24.0523 18 23.5V13.414L21.7929 17.2071C22.1834 17.5976 22.8166 17.5976 23.2071 17.2071C23.5976 16.8166 23.5976 16.1834 23.2071 15.7929L17.7071 10.2929L17.6254 10.2197C17.6226 10.2174 17.6197 10.2151 17.6168 10.2128L17.7071 10.2929C17.6717 10.2575 17.6343 10.2253 17.5953 10.1963C17.5711 10.1785 17.5463 10.1617 17.5207 10.1461C17.5086 10.1386 17.4964 10.1315 17.4841 10.1247C17.4643 10.1138 17.4439 10.1034 17.4231 10.0937C17.4061 10.0857 17.3888 10.0782 17.3713 10.0712C17.3516 10.0633 17.3318 10.0561 17.3117 10.0495C17.2969 10.0447 17.2815 10.0401 17.266 10.0358C17.2444 10.0298 17.2227 10.0246 17.2008 10.0202C17.1834 10.0167 17.1659 10.0136 17.1485 10.011C17.1294 10.0081 17.1097 10.0057 17.0898 10.004C17.066 10.0019 17.0427 10.0006 17.0194 10.0002C17.0129 10.0001 17.0065 10 17 10Z"/>
</svg>
