<svg width="32" height="32" viewBox="0 0 32 32" fill="none" xmlns="http://www.w3.org/2000/svg">
<path style="fill:currentColor" fill-rule="evenodd" clip-rule="evenodd" d="M23.0261 10.0208C23.4352 10.4299 23.4352 11.0932 23.0261 11.5023C22.617 11.9115 21.9537 11.9115 21.5446 11.5023L17.0472 7.00502L17.0472 19.1425C17.0472 19.7211 16.5782 20.1901 15.9996 20.1901C15.421 20.1901 14.952 19.7211 14.952 19.1425L14.952 7.00502L10.4547 11.5023C10.0456 11.9115 9.38226 11.9115 8.97314 11.5023C8.56401 11.0932 8.56401 10.4299 8.97314 10.0208L15.2587 3.7352C15.4625 3.53144 15.7294 3.42902 15.9965 3.42823C15.9975 3.42822 15.9986 3.42822 15.9996 3.42822C16.0007 3.42822 16.0017 3.42822 16.0028 3.42823C16.1437 3.42864 16.278 3.45687 16.4006 3.50771C16.5224 3.55808 16.6365 3.63237 16.7359 3.7306M23.0261 10.0208L16.741 3.73562L23.0261 10.0208ZM5.52344 19.8159V18.0949C5.52344 17.5163 5.99247 17.0473 6.57106 17.0473C7.14964 17.0473 7.61868 17.5163 7.61868 18.0949L7.61868 19.7711C7.61868 20.9618 7.61949 21.7918 7.67229 22.4381C7.72409 23.072 7.82065 23.4363 7.96123 23.7122C8.26254 24.3036 8.74334 24.7844 9.33471 25.0857C9.6106 25.2262 9.97485 25.3228 10.6088 25.3746C11.255 25.4274 12.0851 25.4282 13.2758 25.4282H18.7234C19.9142 25.4282 20.7442 25.4274 21.3904 25.3746C22.0244 25.3228 22.3887 25.2262 22.6646 25.0857C23.2559 24.7844 23.7367 24.3036 24.038 23.7122C24.1786 23.4363 24.2752 23.072 24.327 22.4381C24.3798 21.7918 24.3806 20.9618 24.3806 19.7711V18.0949C24.3806 17.5163 24.8496 17.0473 25.4282 17.0473C26.0068 17.0473 26.4758 17.5163 26.4758 18.0949V19.8159C26.4758 20.9513 26.4758 21.8671 26.4152 22.6087C26.3529 23.3722 26.2211 24.0429 25.9049 24.6634C25.4027 25.649 24.6014 26.4503 23.6158 26.9525C22.9953 27.2687 22.3246 27.4005 21.561 27.4629C20.8195 27.5235 19.9037 27.5235 18.7684 27.5235H13.231C12.0956 27.5235 11.1798 27.5235 10.4382 27.4629C9.67466 27.4005 9.00398 27.2687 8.38349 26.9525C7.39788 26.4503 6.59655 25.649 6.09436 24.6634C5.7782 24.0429 5.64639 23.3722 5.58401 22.6087C5.52342 21.8671 5.52343 20.9513 5.52344 19.8159Z" />
</svg>
