<svg width="32" height="32" viewBox="0 0 32 32" fill="none" xmlns="http://www.w3.org/2000/svg">
<path d="M22.6668 18.0002C27.5847 18.0002 31.8668 19.7458 31.8668 23.6764C31.8668 25.7485 31.0085 26.6669 29.255 26.6669L21.7939 26.6669C21.0696 26.6669 20.5579 25.9323 20.701 25.2223C20.8013 24.7241 21.2194 24.2669 21.7276 24.267C24.74 24.2674 29.4375 24.2696 29.4375 24.2696C29.4375 24.2696 29.4668 23.8738 29.4668 23.6764C29.4668 21.6601 26.3763 20.4002 22.6668 20.4002C22.0374 20.4002 21.4258 20.4365 20.8441 20.5066C20.3971 20.5604 19.9644 20.348 19.7112 19.9758C19.2432 19.288 19.4898 18.2476 20.315 18.143C21.0709 18.0472 21.8603 18.0002 22.6668 18.0002ZM9.33346 18.0002C14.2514 18.0002 18.5335 19.7458 18.5335 23.6764C18.5335 25.7485 17.6752 26.6669 15.9217 26.6669H2.74523C0.991743 26.6669 0.133464 25.7485 0.133464 23.6764C0.133464 19.7458 4.41553 18.0002 9.33346 18.0002ZM9.33346 20.4002C5.62395 20.4002 2.53346 21.6601 2.53346 23.6764C2.53346 23.8748 2.56013 24.2696 2.56013 24.2696H16.1041C16.1041 24.2696 16.1335 23.8738 16.1335 23.6764C16.1335 21.6601 13.043 20.4002 9.33346 20.4002ZM22.6668 5.60025C25.7237 5.60025 28.2001 8.07668 28.2001 11.1336C28.2001 14.1905 25.7237 16.6669 22.6668 16.6669C19.6099 16.6669 17.1335 14.1905 17.1335 11.1336C17.1335 8.07668 19.6099 5.60025 22.6668 5.60025ZM9.33346 5.60025C12.3904 5.60025 14.8668 8.07668 14.8668 11.1336C14.8668 14.1905 12.3904 16.6669 9.33346 16.6669C6.27656 16.6669 3.80013 14.1905 3.80013 11.1336C3.80013 8.07668 6.27656 5.60025 9.33346 5.60025ZM22.6668 8.00025C20.9354 8.00025 19.5335 9.40216 19.5335 11.1336C19.5335 12.865 20.9354 14.2669 22.6668 14.2669C24.3982 14.2669 25.8001 12.865 25.8001 11.1336C25.8001 9.40216 24.3982 8.00025 22.6668 8.00025ZM9.33346 8.00025C7.60204 8.00025 6.20013 9.40216 6.20013 11.1336C6.20013 12.865 7.60204 14.2669 9.33346 14.2669C11.0649 14.2669 12.4668 12.865 12.4668 11.1336C12.4668 9.40216 11.0649 8.00025 9.33346 8.00025Z" fill="currentColor"/>
</svg>
