<svg width="28" height="28" viewBox="0 0 28 28"  xmlns="http://www.w3.org/2000/svg">
<path d="M17.75 15C22.7011 15 27 16.7626 27 20.6429C27 22.6593 26.2189 23.5 24.5441 23.5H10.9559C9.28111 23.5 8.5 22.6593 8.5 20.6429C8.5 16.7626 12.7989 15 17.75 15ZM17.75 17C13.804 17 10.5 18.3547 10.5 20.6429C10.5 21.5338 10.4285 21.5064 10.8721 21.5006L24.5441 21.5C25.0801 21.5 25 21.5862 25 20.6429C25 18.3547 21.696 17 17.75 17ZM5 7C5.55228 7 6 7.44772 6 8V11H9C9.55228 11 10 11.4477 10 12C10 12.5523 9.55228 13 9 13H6V16C6 16.5523 5.55228 17 5 17C4.44772 17 4 16.5523 4 16V13H1C0.447715 13 0 12.5523 0 12C0 11.4477 0.447715 11 1 11H4V8C4 7.44772 4.44772 7 5 7ZM17.5 3C20.5385 3 23 5.46147 23 8.5C23 11.5385 20.5385 14 17.5 14C14.4615 14 12 11.5385 12 8.5C12 5.46147 14.4615 3 17.5 3ZM17.5 5C15.566 5 14 6.56603 14 8.5C14 10.434 15.566 12 17.5 12C19.434 12 21 10.434 21 8.5C21 6.56603 19.434 5 17.5 5Z"/>
</svg>
