<svg width="11" height="21" viewBox="0 0 11 21" fill="none" xmlns="http://www.w3.org/2000/svg">
<path style="fill:currentColor" d="M5.5 6.125C6.53125 6.125 7.375 5.28125 7.375 4.25C7.375 3.21875 6.53125 2.375 5.5 2.375C4.46875 2.375 3.625 3.21875 3.625 4.25C3.625 5.28125 4.46875 6.125 5.5 6.125ZM5.5 8.625C4.46875 8.625 3.625 9.46875 3.625 10.5C3.625 11.5312 4.46875 12.375 5.5 12.375C6.53125 12.375 7.375 11.5312 7.375 10.5C7.375 9.46875 6.53125 8.625 5.5 8.625ZM5.5 14.875C4.46875 14.875 3.625 15.7188 3.625 16.75C3.625 17.7812 4.46875 18.625 5.5 18.625C6.53125 18.625 7.375 17.7812 7.375 16.75C7.375 15.7188 6.53125 14.875 5.5 14.875Z" />
</svg>
