<svg width="12" height="12" viewBox="0 0 12 12" fill="none" xmlns="http://www.w3.org/2000/svg">
<path style="fill:currentColor" d="M0.494915 0.494923C0.773861 0.215977 1.22612 0.215977 1.50507 0.494923L5.99999 4.98928L10.4949 0.494923C10.7524 0.237434 11.1576 0.217627 11.4378 0.435502L11.5051 0.494923C11.784 0.773869 11.784 1.22613 11.5051 1.50508L7.01071 6L11.5051 10.4949C11.7626 10.7524 11.7824 11.1576 11.5645 11.4378L11.5051 11.5051C11.2261 11.784 10.7739 11.784 10.4949 11.5051L5.99999 7.01071L1.50507 11.5051C1.24758 11.7626 0.842414 11.7824 0.562206 11.5645L0.494915 11.5051C0.215969 11.2261 0.215969 10.7739 0.494915 10.4949L4.98928 6L0.494915 1.50508C0.237427 1.24759 0.21762 0.842422 0.435494 0.562214L0.494915 0.494923Z"/>
</svg>
