<svg width="32" height="32" viewBox="0 0 32 32" fill="none" xmlns="http://www.w3.org/2000/svg">
<path style="fill:currentColor" fill-rule="evenodd" clip-rule="evenodd" d="M16.3641 11.6883C16.3641 11.0428 15.8408 10.5194 15.1953 10.5194C14.5497 10.5194 14.0264 11.0428 14.0264 11.6883V14.0259H11.6888C11.0432 14.0259 10.5199 14.5492 10.5199 15.1948C10.5199 15.8403 11.0432 16.3636 11.6888 16.3636H14.0264V18.7013C14.0264 19.3468 14.5497 19.8701 15.1953 19.8701C15.8408 19.8701 16.3641 19.3468 16.3641 18.7013V16.3636H18.7018C19.3473 16.3636 19.8706 15.8403 19.8706 15.1948C19.8706 14.5492 19.3473 14.0259 18.7018 14.0259H16.3641V11.6883Z" />
<path style="fill:currentColor" fill-rule="evenodd" clip-rule="evenodd" d="M15.1953 4.67529C9.38551 4.67529 4.67578 9.38502 4.67578 15.1948C4.67578 21.0045 9.38551 25.7143 15.1953 25.7143C17.679 25.7143 19.9618 24.8534 21.7614 23.4139L27.2259 28.8784C27.6824 29.3349 28.4224 29.3349 28.8789 28.8784C29.3354 28.4219 29.3354 27.6819 28.8789 27.2254L23.4144 21.7609C24.8539 19.9613 25.7147 17.6786 25.7147 15.1948C25.7147 9.38502 21.005 4.67529 15.1953 4.67529ZM15.1953 7.01296C10.6766 7.01296 7.01344 10.6761 7.01344 15.1948C7.01344 19.7135 10.6766 23.3766 15.1953 23.3766C19.714 23.3766 23.3771 19.7135 23.3771 15.1948C23.3771 10.6761 19.714 7.01296 15.1953 7.01296Z" />
</svg>
