<svg width="32" height="32" viewBox="0 0 32 32" fill="none" xmlns="http://www.w3.org/2000/svg">
<path style="fill:currentColor" d="M11.0204 13.2245H13.2245H15.4286H17.6327C18.2413 13.2245 18.7347 13.7179 18.7347 14.3266C18.7347 14.9352 18.2413 15.4286 17.6327 15.4286H15.4286H13.2245H11.0204C10.4118 15.4286 9.91841 14.9352 9.91841 14.3266C9.91841 13.7179 10.4118 13.2245 11.0204 13.2245Z" />
<path style="fill:currentColor" fill-rule="evenodd" clip-rule="evenodd" d="M14.3266 4.4082C8.84881 4.4082 4.4082 8.84881 4.4082 14.3266C4.4082 19.8043 8.84881 24.2449 14.3266 24.2449C16.6684 24.2449 18.8207 23.4333 20.5175 22.076L25.6698 27.2283C26.1001 27.6587 26.7979 27.6587 27.2283 27.2283C27.6587 26.7979 27.6587 26.1001 27.2283 25.6698L22.076 20.5175C23.4333 18.8207 24.2449 16.6684 24.2449 14.3266C24.2449 8.84881 19.8043 4.4082 14.3266 4.4082ZM14.3266 6.61228C10.0661 6.61228 6.61228 10.0661 6.61228 14.3266C6.61228 18.5871 10.0661 22.0409 14.3266 22.0409C18.5871 22.0409 22.0409 18.5871 22.0409 14.3266C22.0409 10.0661 18.5871 6.61228 14.3266 6.61228Z" />
</svg>
