<?xml version="1.0" encoding="utf-8"?>
<!-- Generator: Adobe Illustrator 15.0.0, SVG Export Plug-In . SVG Version: 6.00 Build 0)  -->
<!DOCTYPE svg PUBLIC "-//W3C//DTD SVG 1.1//EN" "http://www.w3.org/Graphics/SVG/1.1/DTD/svg11.dtd">
<svg version="1.1" id="Layer_1" xmlns="http://www.w3.org/2000/svg" xmlns:xlink="http://www.w3.org/1999/xlink" x="0px" y="0px"
	 width="179.384px" height="153.07px" viewBox="0 0 179.384 153.07" enable-background="new 0 0 179.384 153.07"
	 xml:space="preserve">
<defs>
	<filter id="Adobe_OpacityMaskFilter" filterUnits="userSpaceOnUse" x="0" y="-0.232" width="179.384" height="153.302">
		<feColorMatrix  type="matrix" values="1 0 0 0 0  0 1 0 0 0  0 0 1 0 0  0 0 0 1 0"/>
	</filter>
</defs>
<mask maskUnits="userSpaceOnUse" x="0" y="-0.232" width="179.384" height="153.302" id="SVGID_1_">
	<g filter="url(#Adobe_OpacityMaskFilter)">
		<g>
			<polygon fill-rule="evenodd" clip-rule="evenodd" fill="#FFFFFF" points="0,153.061 0,50.872 89.1,-0.232 179.384,50.872
				179.384,153.07 89.1,101.965 			"/>
			<polygon fill-rule="evenodd" clip-rule="evenodd" fill="#FFFFFF" points="90.285,306.373 -2.122,357.219 -88.508,306.373
				-88.508,204.18 0,153.07 0,255.86 			"/>
			<polygon fill-rule="evenodd" clip-rule="evenodd" fill="#FFFFFF" points="179.384,153.07 267.892,204.18 267.892,306.373
				178.792,357.467 90.285,306.373 179.384,255.273 			"/>
		</g>

			<image overflow="visible" width="1746" height="1963" xlink:href="88F8BD2B.png"  transform="matrix(0.4198 0 0 0.4198 -281.6914 -219.0498)">
		</image>
	</g>
</mask>
<g mask="url(#SVGID_1_)">
	<polygon fill-rule="evenodd" clip-rule="evenodd" fill="#3b4b59" points="0,153.061 0,50.872 89.1,-0.232 179.384,50.872
		179.384,153.07 89.1,101.965 	"/>
</g>
</svg>
